%TF.GenerationSoftware,Altium Limited,Altium Designer,23.10.1 (27)*%
G04 Layer_Physical_Order=1*
G04 Layer_Color=255*
%FSLAX45Y45*%
%MOMM*%
%TF.SameCoordinates,D187A3F4-093A-4DDC-863C-0592D449728B*%
%TF.FilePolarity,Positive*%
%TF.FileFunction,Copper,L1,Top,Signal*%
%TF.Part,Single*%
G01*
G75*
%TA.AperFunction,SMDPad,CuDef*%
%ADD10R,0.47500X0.50000*%
%TA.AperFunction,ConnectorPad*%
%ADD11R,1.15000X0.30000*%
%ADD12R,1.15000X0.60000*%
%TA.AperFunction,SMDPad,CuDef*%
%ADD13R,0.60000X0.55000*%
%TA.AperFunction,ConnectorPad*%
%ADD14R,0.54000X0.58000*%
%TA.AperFunction,SMDPad,CuDef*%
%ADD15R,1.35443X1.45620*%
%TA.AperFunction,ConnectorPad*%
%ADD16R,0.47247X0.51535*%
%TA.AperFunction,SMDPad,CuDef*%
%ADD17R,0.47247X0.46818*%
%ADD18R,0.46818X0.47247*%
G04:AMPARAMS|DCode=19|XSize=1.55439mm|YSize=0.57213mm|CornerRadius=0.28606mm|HoleSize=0mm|Usage=FLASHONLY|Rotation=0.000|XOffset=0mm|YOffset=0mm|HoleType=Round|Shape=RoundedRectangle|*
%AMROUNDEDRECTD19*
21,1,1.55439,0.00000,0,0,0.0*
21,1,0.98226,0.57213,0,0,0.0*
1,1,0.57213,0.49113,0.00000*
1,1,0.57213,-0.49113,0.00000*
1,1,0.57213,-0.49113,0.00000*
1,1,0.57213,0.49113,0.00000*
%
%ADD19ROUNDEDRECTD19*%
%ADD20R,1.55439X0.57213*%
%ADD21R,0.50000X0.60000*%
%ADD22R,0.55000X0.55000*%
%ADD23R,0.66817X0.67248*%
%ADD24R,0.55000X0.55000*%
%ADD25R,0.54000X0.58000*%
G04:AMPARAMS|DCode=26|XSize=0.2mm|YSize=0.84mm|CornerRadius=0.025mm|HoleSize=0mm|Usage=FLASHONLY|Rotation=90.000|XOffset=0mm|YOffset=0mm|HoleType=Round|Shape=RoundedRectangle|*
%AMROUNDEDRECTD26*
21,1,0.20000,0.79000,0,0,90.0*
21,1,0.15000,0.84000,0,0,90.0*
1,1,0.05000,0.39500,0.07500*
1,1,0.05000,0.39500,-0.07500*
1,1,0.05000,-0.39500,-0.07500*
1,1,0.05000,-0.39500,0.07500*
%
%ADD26ROUNDEDRECTD26*%
G04:AMPARAMS|DCode=27|XSize=0.84mm|YSize=0.2mm|CornerRadius=0.025mm|HoleSize=0mm|Usage=FLASHONLY|Rotation=90.000|XOffset=0mm|YOffset=0mm|HoleType=Round|Shape=RoundedRectangle|*
%AMROUNDEDRECTD27*
21,1,0.84000,0.15000,0,0,90.0*
21,1,0.79000,0.20000,0,0,90.0*
1,1,0.05000,0.07500,0.39500*
1,1,0.05000,0.07500,-0.39500*
1,1,0.05000,-0.07500,-0.39500*
1,1,0.05000,-0.07500,0.39500*
%
%ADD27ROUNDEDRECTD27*%
%ADD28R,3.10000X3.10000*%
%TA.AperFunction,ConnectorPad*%
G04:AMPARAMS|DCode=29|XSize=1.61mm|YSize=0.58mm|CornerRadius=0.0725mm|HoleSize=0mm|Usage=FLASHONLY|Rotation=180.000|XOffset=0mm|YOffset=0mm|HoleType=Round|Shape=RoundedRectangle|*
%AMROUNDEDRECTD29*
21,1,1.61000,0.43500,0,0,180.0*
21,1,1.46500,0.58000,0,0,180.0*
1,1,0.14500,-0.73250,0.21750*
1,1,0.14500,0.73250,0.21750*
1,1,0.14500,0.73250,-0.21750*
1,1,0.14500,-0.73250,-0.21750*
%
%ADD29ROUNDEDRECTD29*%
%TA.AperFunction,SMDPad,CuDef*%
%ADD30R,0.60000X0.45000*%
%ADD31R,0.45000X0.45000*%
%ADD32R,0.58000X0.54000*%
%TA.AperFunction,ConnectorPad*%
%ADD33R,2.10000X5.60000*%
%TA.AperFunction,SMDPad,CuDef*%
%ADD34R,0.56000X0.52000*%
%ADD35R,0.52000X0.56000*%
%ADD36R,0.50000X0.40000*%
%TA.AperFunction,ConnectorPad*%
%ADD37R,1.60000X2.20000*%
%ADD38R,1.60000X2.18000*%
%TA.AperFunction,Conductor*%
%ADD39C,0.50800*%
%ADD40C,0.20320*%
%ADD41C,0.23971*%
%ADD42C,0.25400*%
%TA.AperFunction,ComponentPad*%
G04:AMPARAMS|DCode=43|XSize=1mm|YSize=1.8mm|CornerRadius=0.5mm|HoleSize=0mm|Usage=FLASHONLY|Rotation=270.000|XOffset=0mm|YOffset=0mm|HoleType=Round|Shape=RoundedRectangle|*
%AMROUNDEDRECTD43*
21,1,1.00000,0.80000,0,0,270.0*
21,1,0.00000,1.80000,0,0,270.0*
1,1,1.00000,-0.40000,0.00000*
1,1,1.00000,-0.40000,0.00000*
1,1,1.00000,0.40000,0.00000*
1,1,1.00000,0.40000,0.00000*
%
%ADD43ROUNDEDRECTD43*%
G04:AMPARAMS|DCode=44|XSize=1mm|YSize=2.1mm|CornerRadius=0.5mm|HoleSize=0mm|Usage=FLASHONLY|Rotation=270.000|XOffset=0mm|YOffset=0mm|HoleType=Round|Shape=RoundedRectangle|*
%AMROUNDEDRECTD44*
21,1,1.00000,1.10000,0,0,270.0*
21,1,0.00000,2.10000,0,0,270.0*
1,1,1.00000,-0.55000,0.00000*
1,1,1.00000,-0.55000,0.00000*
1,1,1.00000,0.55000,0.00000*
1,1,1.00000,0.55000,0.00000*
%
%ADD44ROUNDEDRECTD44*%
%ADD45C,0.65000*%
%TA.AperFunction,ViaPad*%
%ADD46C,1.52400*%
%ADD47C,0.50800*%
%ADD48C,0.71120*%
G36*
X3649884Y1574801D02*
X3641114Y1569738D01*
X3624562Y1553186D01*
X3612858Y1532914D01*
X3606800Y1510304D01*
Y1486896D01*
X3612858Y1464286D01*
X3624562Y1444014D01*
X3641114Y1427462D01*
X3661386Y1415758D01*
X3683996Y1409700D01*
X3707404D01*
X3723466Y1414004D01*
X3735892Y1401577D01*
Y1305054D01*
X3699233Y1268395D01*
X3687500Y1273256D01*
Y1282700D01*
X3633100D01*
Y1295400D01*
X3620400D01*
Y1347800D01*
X3578700D01*
Y1335100D01*
X3513400D01*
Y1334247D01*
X3426299D01*
X3417251Y1332447D01*
X3227400D01*
Y1359800D01*
X3175000D01*
Y1372500D01*
X3162300D01*
Y1426900D01*
X3122600D01*
Y1422900D01*
X3084500D01*
Y1368500D01*
X3071800D01*
Y1355800D01*
X3019400D01*
Y1332347D01*
X2971400D01*
Y1360800D01*
X2921000D01*
X2870600D01*
Y1332347D01*
X2504546D01*
Y1358653D01*
X2501589Y1373518D01*
X2494794Y1383689D01*
X2495360Y1385432D01*
X2500124Y1396389D01*
X2500124Y1396389D01*
X2500124Y1396390D01*
Y1434856D01*
X2451100D01*
Y1447556D01*
D01*
Y1434856D01*
X2402076D01*
Y1410690D01*
X2309624D01*
Y1434856D01*
X2260600D01*
X2211576D01*
Y1410690D01*
X2101110D01*
Y1431710D01*
X1894674D01*
Y1444010D01*
X1891717Y1458876D01*
X1883296Y1471479D01*
X1840506Y1514268D01*
X1827903Y1522689D01*
X1813038Y1525646D01*
X1741500D01*
Y1528500D01*
X1717037D01*
X1670736Y1574801D01*
X1672596Y1582879D01*
X1675615Y1587501D01*
X3265481D01*
X3268884Y1574801D01*
X3260114Y1569738D01*
X3243562Y1553186D01*
X3231858Y1532914D01*
X3225800Y1510304D01*
Y1486896D01*
X3231858Y1464286D01*
X3243562Y1444014D01*
X3260114Y1427462D01*
X3280386Y1415758D01*
X3302996Y1409700D01*
X3326404D01*
X3349014Y1415758D01*
X3369286Y1427462D01*
X3385838Y1444014D01*
X3397542Y1464286D01*
X3403600Y1486896D01*
Y1510304D01*
X3397542Y1532914D01*
X3385838Y1553186D01*
X3369286Y1569738D01*
X3360516Y1574801D01*
X3363919Y1587501D01*
X3455981D01*
X3459384Y1574801D01*
X3450614Y1569738D01*
X3434062Y1553186D01*
X3422358Y1532914D01*
X3416300Y1510304D01*
Y1486896D01*
X3422358Y1464286D01*
X3434062Y1444014D01*
X3450614Y1427462D01*
X3470886Y1415758D01*
X3493496Y1409700D01*
X3516904D01*
X3539514Y1415758D01*
X3559786Y1427462D01*
X3576338Y1444014D01*
X3588042Y1464286D01*
X3594100Y1486896D01*
Y1510304D01*
X3588042Y1532914D01*
X3576338Y1553186D01*
X3559786Y1569738D01*
X3551016Y1574801D01*
X3554419Y1587501D01*
X3646481D01*
X3649884Y1574801D01*
D02*
G37*
G36*
X4923617D02*
X4909800Y1560984D01*
X4896424Y1537816D01*
X4889500Y1511976D01*
Y1511300D01*
X4991100D01*
Y1485900D01*
X4889500D01*
Y1485224D01*
X4896424Y1459384D01*
X4909800Y1436216D01*
X4928716Y1417300D01*
X4951884Y1403924D01*
X4965221Y1400350D01*
X4963549Y1387650D01*
X4902200D01*
Y1265950D01*
X4994900D01*
Y1384300D01*
X4994900Y1387650D01*
X5002988Y1397000D01*
X5004476D01*
X5030316Y1403924D01*
X5053484Y1417300D01*
X5067301Y1431117D01*
X5080001Y1425856D01*
Y161644D01*
X5067301Y156383D01*
X5053484Y170200D01*
X5030316Y183576D01*
X5004476Y190500D01*
X5003800D01*
Y88900D01*
X4991100D01*
Y76200D01*
X4889500D01*
Y75524D01*
X4896424Y49684D01*
X4909800Y26516D01*
X4923616Y12700D01*
X4918355Y0D01*
X3910021D01*
X3906618Y12700D01*
X3915386Y17762D01*
X3931938Y34314D01*
X3943642Y54586D01*
X3949700Y77196D01*
Y100604D01*
X3943642Y123214D01*
X3931938Y143486D01*
X3915386Y160038D01*
X3895114Y171742D01*
X3872504Y177800D01*
X3849096D01*
X3826486Y171742D01*
X3816618Y166044D01*
X3737581Y245081D01*
X3730019Y250134D01*
X3721100Y251908D01*
X3591054D01*
X3576895Y266067D01*
X3581756Y277800D01*
X3629500D01*
Y265100D01*
X3671200D01*
Y317500D01*
Y369900D01*
X3629500D01*
Y357200D01*
X3599162D01*
X3574765Y381598D01*
X3580025Y394298D01*
X3589200D01*
X3590579Y394869D01*
X3601700Y398809D01*
X3612821Y394869D01*
X3614200Y394298D01*
X3629200D01*
X3630579Y394869D01*
X3641700Y398809D01*
X3652820Y394869D01*
X3654200Y394298D01*
X3669200D01*
X3670579Y394869D01*
X3681700Y398809D01*
X3692821Y394869D01*
X3694200Y394298D01*
X3709200D01*
X3720834Y399117D01*
X3725652Y410750D01*
Y489750D01*
X3720834Y501384D01*
X3709200Y506202D01*
X3694200D01*
X3692821Y505631D01*
X3681700Y501691D01*
X3670579Y505631D01*
X3669200Y506202D01*
X3654200D01*
X3652820Y505631D01*
X3641700Y501691D01*
X3630579Y505631D01*
X3629200Y506202D01*
X3614200D01*
X3612821Y505631D01*
X3601700Y501691D01*
X3590579Y505631D01*
X3589200Y506202D01*
X3574200D01*
X3567686Y510555D01*
X3566811Y523949D01*
X3661381Y618519D01*
X3666434Y626081D01*
X3668208Y635000D01*
Y790282D01*
X3723213D01*
X3729248Y781250D01*
Y766250D01*
X3734066Y754617D01*
X3734066Y752883D01*
X3729248Y741250D01*
Y726250D01*
X3730039Y724340D01*
X3725585Y721365D01*
X3719419Y712136D01*
X3718288Y706450D01*
X3785200D01*
X3857414D01*
X3860691Y710442D01*
X3892096D01*
X3989892Y612645D01*
Y562300D01*
X3974500D01*
Y497000D01*
X3961800D01*
Y456300D01*
X4064600D01*
Y486585D01*
X4077300Y493338D01*
X4083000Y489493D01*
Y203200D01*
X4200300D01*
Y26050D01*
X4435700D01*
Y203200D01*
X4553000D01*
Y1384300D01*
X4435700D01*
Y1424492D01*
X4581200D01*
Y1409100D01*
X4646500D01*
Y1396400D01*
X4687200D01*
Y1447800D01*
Y1499200D01*
X4646500D01*
Y1486500D01*
X4581200D01*
Y1471108D01*
X4435700D01*
Y1561450D01*
X4200300D01*
Y1470668D01*
X4050860D01*
X4041940Y1468893D01*
X4034379Y1463841D01*
X3973496Y1402958D01*
X3968443Y1395396D01*
X3966669Y1386477D01*
Y1380600D01*
X3947600D01*
Y1300201D01*
X3947600D01*
Y1290599D01*
X3947600D01*
Y1210200D01*
X4002592D01*
Y835154D01*
X3964496Y797058D01*
X3951300D01*
Y860900D01*
X3964000D01*
Y902600D01*
X3911600D01*
Y915300D01*
X3898900D01*
Y969700D01*
X3892356D01*
X3887495Y981433D01*
X3904862Y998800D01*
X3951300D01*
Y1064100D01*
X3964000D01*
Y1105800D01*
X3911600D01*
X3859200D01*
Y1064100D01*
X3871900D01*
Y1031762D01*
X3853852Y1013715D01*
X3841152Y1018975D01*
Y1021250D01*
X3836334Y1032883D01*
X3836333Y1034617D01*
X3841152Y1046250D01*
Y1061250D01*
X3836333Y1072884D01*
X3824700Y1077702D01*
X3745700D01*
X3744144Y1077058D01*
X3728368D01*
X3722342Y1089758D01*
X3725652Y1097750D01*
Y1145092D01*
X3738773D01*
X3747693Y1146866D01*
X3755254Y1151919D01*
X3902681Y1299346D01*
X3907734Y1306907D01*
X3909508Y1315827D01*
Y1412809D01*
X3920514Y1415758D01*
X3940786Y1427462D01*
X3957338Y1444014D01*
X3969042Y1464286D01*
X3975100Y1486896D01*
Y1510304D01*
X3969042Y1532914D01*
X3957338Y1553186D01*
X3940786Y1569738D01*
X3932016Y1574801D01*
X3935419Y1587501D01*
X4918356D01*
X4923617Y1574801D01*
D02*
G37*
G36*
X4200300Y1384300D02*
X4083000D01*
Y545808D01*
X4051900D01*
Y562300D01*
X4036508D01*
Y622300D01*
X4034734Y631219D01*
X4029681Y638781D01*
X3930720Y737742D01*
X3935980Y750442D01*
X3974150D01*
X3983070Y752216D01*
X3990631Y757269D01*
X4042381Y809019D01*
X4047434Y816581D01*
X4049208Y825500D01*
Y1220760D01*
X4047434Y1229680D01*
X4042381Y1237241D01*
X4028000Y1251622D01*
Y1290599D01*
X4028000D01*
Y1300201D01*
X4028000D01*
Y1380599D01*
X4028000D01*
X4024796Y1388334D01*
X4060514Y1424052D01*
X4200300D01*
Y1384300D01*
D02*
G37*
G36*
X1792123Y1444410D02*
X1785607Y1431710D01*
X1785090D01*
Y1260690D01*
X1981842D01*
Y1122379D01*
X1962995Y1103532D01*
X1951756D01*
X1941324Y1109006D01*
Y1132431D01*
X1943847Y1145115D01*
X1941324Y1157798D01*
Y1181223D01*
X1923829D01*
X1917683Y1187368D01*
X1905081Y1195789D01*
X1890215Y1198746D01*
X1778400D01*
Y1202600D01*
X1703000D01*
Y1198746D01*
X1663533D01*
X1569674Y1292605D01*
X1569652Y1292717D01*
X1560522Y1306380D01*
X1546859Y1315510D01*
X1536222Y1317626D01*
Y1330574D01*
X1546859Y1332690D01*
X1560522Y1341820D01*
X1569652Y1355483D01*
X1572858Y1371600D01*
X1569652Y1387717D01*
X1560522Y1401380D01*
X1546859Y1410510D01*
X1536222Y1412626D01*
Y1425574D01*
X1546859Y1427690D01*
X1560522Y1436820D01*
X1564847Y1443292D01*
X1587238D01*
X1627839Y1402691D01*
X1635401Y1397639D01*
X1644320Y1395864D01*
X1662100D01*
Y1367100D01*
X1741500D01*
Y1447953D01*
X1789579D01*
X1792123Y1444410D01*
D02*
G37*
G36*
X3840384Y1574801D02*
X3831614Y1569738D01*
X3815062Y1553186D01*
X3803358Y1532914D01*
X3797300Y1510304D01*
Y1486896D01*
X3803358Y1464286D01*
X3815062Y1444014D01*
X3831614Y1427462D01*
X3851886Y1415758D01*
X3862892Y1412809D01*
Y1325481D01*
X3729119Y1191708D01*
X3712808D01*
X3709200Y1193202D01*
X3707925D01*
X3702664Y1205902D01*
X3775681Y1278919D01*
X3780734Y1286481D01*
X3782508Y1295400D01*
Y1411232D01*
X3780734Y1420152D01*
X3775681Y1427713D01*
X3763109Y1440285D01*
X3766838Y1444014D01*
X3778542Y1464286D01*
X3784600Y1486896D01*
Y1510304D01*
X3778542Y1532914D01*
X3766838Y1553186D01*
X3750286Y1569738D01*
X3741516Y1574801D01*
X3744919Y1587501D01*
X3836981D01*
X3840384Y1574801D01*
D02*
G37*
G36*
X3513400Y1255700D02*
X3519092D01*
Y1199812D01*
X3509200Y1193202D01*
X3494200D01*
X3492821Y1192631D01*
X3481700Y1188691D01*
X3470579Y1192631D01*
X3469200Y1193202D01*
X3454200D01*
X3452821Y1192631D01*
X3441700Y1188691D01*
X3430579Y1192631D01*
X3429200Y1193202D01*
X3414200D01*
X3412821Y1192631D01*
X3401700Y1188691D01*
X3390579Y1192631D01*
X3389200Y1193202D01*
X3374200D01*
X3372821Y1192631D01*
X3361700Y1188691D01*
X3350580Y1192631D01*
X3349200Y1193202D01*
X3334200D01*
X3332821Y1192631D01*
X3321700Y1188691D01*
X3310579Y1192631D01*
X3309200Y1193202D01*
X3294200D01*
X3292821Y1192631D01*
X3281700Y1188691D01*
X3270579Y1192631D01*
X3269200Y1193202D01*
X3254200D01*
X3252821Y1192631D01*
X3241700Y1188691D01*
X3230580Y1192631D01*
X3229200Y1193202D01*
X3214200D01*
X3205008Y1199344D01*
Y1252800D01*
X3214700D01*
Y1254754D01*
X3424500D01*
X3433548Y1256553D01*
X3513400D01*
Y1255700D01*
D02*
G37*
G36*
X423774Y1189707D02*
X429896Y1180546D01*
X450635Y1166688D01*
X475100Y1161822D01*
X504700D01*
Y1132914D01*
X494140Y1125858D01*
X489091Y1127950D01*
X471109D01*
X454496Y1121069D01*
X441781Y1108354D01*
X434900Y1091741D01*
Y1073759D01*
X441781Y1057146D01*
X454496Y1044431D01*
X471109Y1037550D01*
X489091D01*
X504700Y1044015D01*
X517400Y1039534D01*
Y942058D01*
X437104D01*
X404308Y974854D01*
Y1190361D01*
X406751Y1192324D01*
X423774Y1189707D01*
D02*
G37*
G36*
X997304Y1582879D02*
X999164Y1574801D01*
X963131Y1538769D01*
X954711Y1526166D01*
X951753Y1511300D01*
Y1409700D01*
X954711Y1394834D01*
X963131Y1382231D01*
X1001231Y1344131D01*
X1013834Y1335711D01*
X1028700Y1332753D01*
X1196246D01*
X1196341Y1332690D01*
X1206978Y1330574D01*
Y1317626D01*
X1196341Y1315510D01*
X1182678Y1306380D01*
X1173548Y1292717D01*
X1170342Y1276600D01*
X1173548Y1260483D01*
X1180345Y1250311D01*
X1049702Y1119669D01*
X1002630Y1072597D01*
X965947D01*
Y1120463D01*
X969800D01*
Y1190062D01*
X969800Y1190862D01*
X971731Y1202763D01*
X982500D01*
Y1237962D01*
X927100D01*
X871700D01*
Y1202763D01*
X882469D01*
X884400Y1190862D01*
X884400Y1190062D01*
Y1120463D01*
X888253D01*
Y1072597D01*
X788147D01*
Y1123800D01*
X792000D01*
Y1196100D01*
X804700D01*
Y1236300D01*
X749300D01*
X693900D01*
Y1196100D01*
X706600D01*
Y1123800D01*
X710453D01*
Y1072597D01*
X670500D01*
Y1101050D01*
X587600D01*
Y1126450D01*
X670500D01*
Y1169150D01*
X634369D01*
X631176Y1181850D01*
X644162Y1201286D01*
X649028Y1225750D01*
X644162Y1250214D01*
X630304Y1270954D01*
X609564Y1284812D01*
X585100Y1289678D01*
X475100D01*
X450635Y1284812D01*
X429896Y1270954D01*
X423774Y1261793D01*
X406751Y1259176D01*
X404308Y1261138D01*
Y1414176D01*
X426523D01*
Y1506824D01*
X338794D01*
Y1519524D01*
X292685D01*
Y1460500D01*
Y1401476D01*
X338794D01*
Y1414176D01*
X357692D01*
Y965200D01*
X359466Y956281D01*
X364519Y948719D01*
X410969Y902269D01*
X418531Y897216D01*
X427450Y895442D01*
X486844D01*
X491548Y882742D01*
X477503Y868697D01*
X472047Y860531D01*
X470131Y850900D01*
Y732792D01*
X472047Y723160D01*
X477503Y714995D01*
X491545Y700953D01*
X499710Y695497D01*
X509342Y693581D01*
X517400D01*
Y642058D01*
X428250D01*
X419331Y640284D01*
X411769Y635231D01*
X363934Y587396D01*
X358881Y579834D01*
X357107Y570915D01*
Y186024D01*
X338794D01*
Y198724D01*
X292685D01*
Y139700D01*
Y80676D01*
X338794D01*
Y93376D01*
X426523D01*
Y186024D01*
X403723D01*
Y332624D01*
X415475Y336884D01*
X416423Y336710D01*
X429896Y316546D01*
X450635Y302688D01*
X475100Y297822D01*
X585100D01*
X609564Y302688D01*
X630304Y316546D01*
X644162Y337286D01*
X649028Y361750D01*
X644162Y386214D01*
X631176Y405650D01*
X634369Y418350D01*
X670500D01*
Y461050D01*
X587600D01*
Y486450D01*
X670500D01*
Y510304D01*
X686617D01*
X751303Y445618D01*
X748554Y431799D01*
X749095Y429078D01*
X748554Y426357D01*
Y183284D01*
X743070Y177800D01*
X724896D01*
X702286Y171742D01*
X682014Y160038D01*
X665462Y143486D01*
X653758Y123214D01*
X647700Y100604D01*
Y77196D01*
X653758Y54586D01*
X665462Y34314D01*
X682014Y17762D01*
X690782Y12700D01*
X687379Y0D01*
X161645D01*
X156384Y12700D01*
X170200Y26516D01*
X183576Y49684D01*
X190500Y75524D01*
Y76200D01*
X88900D01*
Y88900D01*
X76200D01*
Y190500D01*
X75524D01*
X49684Y183576D01*
X26516Y170200D01*
X12700Y156384D01*
X0Y161645D01*
Y337734D01*
X12700Y338985D01*
X13038Y337286D01*
X26896Y316546D01*
X47636Y302688D01*
X72100Y297822D01*
X152100D01*
X176564Y302688D01*
X197304Y316546D01*
X211162Y337286D01*
X216028Y361750D01*
X211162Y386214D01*
X197304Y406954D01*
X176564Y420812D01*
X152100Y425678D01*
X72100D01*
X47636Y420812D01*
X26896Y406954D01*
X13038Y386214D01*
X12700Y384515D01*
X0Y385766D01*
Y1201734D01*
X12700Y1202985D01*
X13038Y1201286D01*
X26896Y1180546D01*
X47636Y1166688D01*
X72100Y1161822D01*
X152100D01*
X176564Y1166688D01*
X197304Y1180546D01*
X211162Y1201286D01*
X216028Y1225750D01*
X211162Y1250214D01*
X197304Y1270954D01*
X176564Y1284812D01*
X152100Y1289678D01*
X72100D01*
X47636Y1284812D01*
X26896Y1270954D01*
X13038Y1250214D01*
X12700Y1248515D01*
X0Y1249766D01*
Y1425855D01*
X12700Y1431116D01*
X26516Y1417300D01*
X49684Y1403924D01*
X75524Y1397000D01*
X76200D01*
Y1498600D01*
X88900D01*
Y1511300D01*
X190500D01*
Y1511976D01*
X183576Y1537816D01*
X170200Y1560984D01*
X156383Y1574801D01*
X161644Y1587501D01*
X994285D01*
X997304Y1582879D01*
D02*
G37*
G36*
X2426853Y1309591D02*
X2095909Y978647D01*
X1566103D01*
X1564037Y980713D01*
X1546299Y988060D01*
X1527101D01*
X1509363Y980713D01*
X1495787Y967137D01*
X1488440Y949399D01*
Y930201D01*
X1495787Y912463D01*
X1509363Y898887D01*
X1527101Y891540D01*
X1546299D01*
X1564037Y898887D01*
X1566103Y900953D01*
X2112000D01*
X2126866Y903911D01*
X2139468Y912331D01*
X2481791Y1254654D01*
X3032100D01*
Y1248800D01*
X3049992D01*
Y1074095D01*
X3047067Y1072884D01*
X3042248Y1061250D01*
Y1046250D01*
X3047066Y1034617D01*
X3047067Y1032883D01*
X3042248Y1021250D01*
Y1006250D01*
X3036105Y997058D01*
X3023705D01*
X2913981Y1106781D01*
X2906420Y1111834D01*
X2897500Y1113608D01*
X2873199D01*
X2869800Y1124900D01*
X2869800Y1126308D01*
Y1157600D01*
X2819400D01*
X2769000D01*
Y1126308D01*
X2769000Y1124900D01*
X2765601Y1113608D01*
X2744265D01*
X2732100Y1114900D01*
Y1156600D01*
X2679700D01*
X2627300D01*
Y1114900D01*
X2640000D01*
Y1049600D01*
X2719400D01*
Y1066992D01*
X2781700D01*
Y1057600D01*
X2857100D01*
Y1066992D01*
X2887846D01*
X2984884Y969954D01*
X2979623Y957254D01*
X2932429D01*
X2920101Y969582D01*
X2911936Y975038D01*
X2902304Y976954D01*
X2767600D01*
Y1013100D01*
X2697201D01*
Y1013100D01*
X2687599D01*
Y1013100D01*
X2617200D01*
Y976954D01*
X2548903D01*
X2539271Y975038D01*
X2531106Y969582D01*
X2410763Y849240D01*
X1713071D01*
X1703439Y847324D01*
X1695274Y841868D01*
X1639860Y786454D01*
X830100D01*
Y827800D01*
X842800D01*
Y868000D01*
X787400D01*
X732000D01*
Y827800D01*
X744700D01*
Y793919D01*
X657800D01*
Y891050D01*
Y994904D01*
X936513D01*
Y946904D01*
X934447Y944838D01*
X927100Y927100D01*
Y907901D01*
X934447Y890164D01*
X948023Y876588D01*
X965761Y869241D01*
X984959D01*
X1002697Y876588D01*
X1016273Y890164D01*
X1023620Y907901D01*
Y927100D01*
X1016273Y944838D01*
X1014207Y946904D01*
Y994904D01*
X1018721D01*
X1033587Y997861D01*
X1046189Y1006281D01*
X1108800Y1068892D01*
X1193677D01*
Y1055876D01*
X1265893D01*
Y1055876D01*
X1274107D01*
Y1055876D01*
X1346323D01*
Y1095561D01*
X1390942Y1140180D01*
X1395994Y1147741D01*
X1397769Y1156661D01*
Y1234864D01*
X1410469Y1241653D01*
X1416399Y1237690D01*
X1432516Y1234484D01*
X1517921D01*
X1545853Y1206552D01*
X1543956Y1190488D01*
X1539286Y1187368D01*
X1316718Y964800D01*
X1297505D01*
Y939148D01*
X1295108Y927100D01*
X1297505Y915052D01*
Y889400D01*
X1328191D01*
X1333955Y888253D01*
X1339719Y889400D01*
X1370405D01*
Y908613D01*
X1582845Y1121053D01*
X1703000D01*
Y1117200D01*
X1778400D01*
Y1121053D01*
X1859696D01*
X1861281Y1119468D01*
X1858908Y1103880D01*
X1858244Y1103532D01*
X1751285D01*
X1736419Y1100575D01*
X1724485Y1092600D01*
X1703000D01*
Y1059864D01*
X1701854Y1054100D01*
Y1049900D01*
X1703000Y1044136D01*
Y1007200D01*
X1778400D01*
Y1025839D01*
X1979085D01*
X1993951Y1028796D01*
X2006554Y1037217D01*
X2048157Y1078820D01*
X2056578Y1091423D01*
X2059535Y1106289D01*
Y1260690D01*
X2101110D01*
Y1332997D01*
X2426853D01*
Y1309591D01*
D02*
G37*
G36*
X3452821Y1081869D02*
X3454200Y1081298D01*
X3469200D01*
X3470579Y1081869D01*
X3481700Y1085809D01*
X3492821Y1081869D01*
X3494200Y1081298D01*
X3509200D01*
X3518552Y1075048D01*
Y1042840D01*
X3520326Y1033920D01*
X3525379Y1026359D01*
X3565854Y985883D01*
X3560994Y974150D01*
X3454400D01*
Y793750D01*
Y613350D01*
X3573694D01*
X3578554Y601617D01*
X3541700Y564762D01*
X3518481Y587981D01*
X3510920Y593034D01*
X3502000Y594808D01*
X3260085D01*
X3251166Y593034D01*
X3243604Y587981D01*
X3165219Y509596D01*
X3160166Y502034D01*
X3158392Y493115D01*
Y491306D01*
X3157748Y489750D01*
Y410750D01*
X3158392Y409194D01*
Y360100D01*
X3122600D01*
Y294800D01*
X3109900D01*
Y253100D01*
X3162300D01*
Y227700D01*
X3109900D01*
Y186000D01*
X3100597Y177800D01*
X3087096D01*
X3064486Y171742D01*
X3044214Y160038D01*
X3027662Y143486D01*
X3015958Y123214D01*
X3009900Y100604D01*
Y77196D01*
X3015958Y54586D01*
X3027662Y34314D01*
X3044214Y17762D01*
X3052982Y12700D01*
X3049579Y0D01*
X1843100D01*
Y37200D01*
X1738300D01*
Y0D01*
X1217621D01*
X1214218Y12700D01*
X1222986Y17762D01*
X1239538Y34314D01*
X1251242Y54586D01*
X1256579Y74504D01*
X1266109Y80872D01*
X1451191Y265953D01*
X1485153D01*
Y215900D01*
X1488111Y201034D01*
X1496531Y188431D01*
X1584532Y100431D01*
X1597134Y92010D01*
X1612000Y89053D01*
X1738300D01*
Y62600D01*
X1843100D01*
Y89053D01*
X1958344D01*
X1959992Y88726D01*
X1976974D01*
X1977567Y87839D01*
X1984166Y83430D01*
X1991950Y81881D01*
X2138450D01*
X2146234Y83430D01*
X2152833Y87839D01*
X2157243Y94438D01*
X2158791Y102222D01*
Y145722D01*
X2157243Y153506D01*
X2152833Y160106D01*
X2146234Y164515D01*
X2138450Y166063D01*
X2063388D01*
X2061600Y166419D01*
X1961311D01*
X1959664Y166746D01*
X1830400D01*
Y169600D01*
X1751000D01*
Y166746D01*
X1628091D01*
X1562847Y231991D01*
Y275397D01*
X1564913Y277463D01*
X1572260Y295201D01*
Y314399D01*
X1564913Y332137D01*
X1551337Y345713D01*
X1533599Y353060D01*
X1514401D01*
X1496663Y345713D01*
X1494597Y343647D01*
X1435100D01*
X1420234Y340689D01*
X1407631Y332269D01*
X1229193Y153831D01*
X1222986Y160038D01*
X1202714Y171742D01*
X1180104Y177800D01*
X1156696D01*
X1134086Y171742D01*
X1113814Y160038D01*
X1097262Y143486D01*
X1086569Y124964D01*
X1080527Y124334D01*
X1073150Y125975D01*
X1072576Y128116D01*
X1059200Y151284D01*
X1040284Y170200D01*
X1017116Y183576D01*
X1014975Y184150D01*
X1013334Y191527D01*
X1013964Y197569D01*
X1032486Y208262D01*
X1049038Y224814D01*
X1060742Y245086D01*
X1066800Y267696D01*
Y291104D01*
X1060742Y313714D01*
X1049038Y333986D01*
X1032486Y350538D01*
X1012214Y362242D01*
X989604Y368300D01*
X966196D01*
X943586Y362242D01*
X923314Y350538D01*
X906762Y333986D01*
X895058Y313714D01*
X889000Y291104D01*
Y267696D01*
X895058Y245086D01*
X906762Y224814D01*
X923314Y208262D01*
X941836Y197569D01*
X942466Y191527D01*
X940825Y184150D01*
X938684Y183576D01*
X915516Y170200D01*
X896600Y151284D01*
X883224Y128116D01*
X876300Y102276D01*
Y101600D01*
X977900D01*
Y76200D01*
X876300D01*
Y75524D01*
X883224Y49684D01*
X896600Y26516D01*
X910416Y12700D01*
X905155Y0D01*
X785821D01*
X782418Y12700D01*
X791186Y17762D01*
X807738Y34314D01*
X819442Y54586D01*
X825500Y77196D01*
Y100604D01*
X819442Y123214D01*
X811725Y136580D01*
X814869Y139724D01*
X823290Y152327D01*
X826247Y167193D01*
Y409282D01*
X899830D01*
X914696Y412239D01*
X927298Y420660D01*
X928279Y421640D01*
X936699D01*
X954437Y428987D01*
X968013Y442563D01*
X975360Y460301D01*
Y479499D01*
X968013Y497237D01*
X954437Y510813D01*
X936699Y518160D01*
X917501D01*
X899763Y510813D01*
X886187Y497237D01*
X881937Y486975D01*
X819820D01*
X766228Y540567D01*
X771088Y552300D01*
X774700D01*
Y605200D01*
X787400D01*
Y617900D01*
X842800D01*
Y658100D01*
X830100D01*
Y699446D01*
X1665475D01*
X1675106Y701362D01*
X1683272Y706817D01*
X1738685Y762231D01*
X2436378D01*
X2446010Y764147D01*
X2454175Y769603D01*
X2574518Y889946D01*
X2617200D01*
Y853800D01*
X2687599D01*
Y853800D01*
X2697201D01*
Y853800D01*
X2767600D01*
Y889946D01*
X2838720D01*
X2840300Y877900D01*
X2840300D01*
Y838200D01*
X2894700D01*
Y812800D01*
X2838374D01*
X2835824Y810708D01*
X2773100D01*
Y827100D01*
X2707800D01*
Y839800D01*
X2666100D01*
Y787400D01*
Y735000D01*
X2707800D01*
Y747700D01*
X2773100D01*
Y764092D01*
X2810654D01*
X2814506Y751392D01*
X2812769Y750231D01*
X2784346Y721808D01*
X1828800D01*
X1819880Y720034D01*
X1812319Y714981D01*
X1748819Y651481D01*
X1743766Y643919D01*
X1741992Y635000D01*
Y342900D01*
X1743766Y333981D01*
X1748819Y326419D01*
X1840747Y234491D01*
X1848308Y229439D01*
X1857228Y227665D01*
X1971919D01*
X1973158Y221438D01*
X1977567Y214839D01*
X1984166Y210430D01*
X1991950Y208881D01*
X2138450D01*
X2146234Y210430D01*
X2152833Y214839D01*
X2157243Y221438D01*
X2158791Y229222D01*
Y272722D01*
X2157243Y280506D01*
X2152833Y287106D01*
X2146234Y291515D01*
X2138450Y293063D01*
X1991950D01*
X1984166Y291515D01*
X1977567Y287106D01*
X1973158Y280506D01*
X1971919Y274280D01*
X1866882D01*
X1788608Y352554D01*
Y625346D01*
X1838455Y675192D01*
X2794000D01*
X2802919Y676966D01*
X2810481Y682019D01*
X2838905Y710442D01*
X2867695D01*
X2872956Y697742D01*
X2833521Y658308D01*
X1955800D01*
X1946881Y656534D01*
X1939319Y651481D01*
X1888519Y600681D01*
X1883466Y593119D01*
X1881692Y584200D01*
Y429533D01*
X1883466Y420613D01*
X1888519Y413051D01*
X1940079Y361491D01*
X1947641Y356439D01*
X1956560Y354665D01*
X1971919D01*
X1973158Y348438D01*
X1977567Y341839D01*
X1984166Y337430D01*
X1991950Y335881D01*
X2138450D01*
X2146234Y337430D01*
X2152833Y341839D01*
X2157243Y348438D01*
X2158791Y356222D01*
Y399722D01*
X2157243Y407506D01*
X2152833Y414106D01*
X2146234Y418515D01*
X2138450Y420063D01*
X1991950D01*
X1984166Y418515D01*
X1977567Y414106D01*
X1975077Y410379D01*
X1964186Y407379D01*
X1960172Y407323D01*
X1928308Y439187D01*
Y574546D01*
X1965454Y611692D01*
X2118540D01*
X2120624Y609162D01*
X2122219Y594953D01*
X2074329Y547063D01*
X1991950D01*
X1984166Y545515D01*
X1977567Y541106D01*
X1973158Y534506D01*
X1971609Y526722D01*
Y483222D01*
X1973158Y475438D01*
X1977567Y468839D01*
X1984166Y464430D01*
X1991950Y462881D01*
X2138450D01*
X2146234Y464430D01*
X2152833Y468839D01*
X2157243Y475438D01*
X2158791Y483222D01*
Y526722D01*
X2157243Y534506D01*
X2152833Y541106D01*
X2152487Y541337D01*
X2151797Y543647D01*
X2158098Y555164D01*
X2677412D01*
X2684201Y542464D01*
X2682194Y539462D01*
X2679660Y526722D01*
Y517672D01*
X2786200D01*
Y504972D01*
X2798900D01*
Y449933D01*
X2854690D01*
X2860304Y437587D01*
X2842781Y420063D01*
X2712950D01*
X2705166Y418515D01*
X2698567Y414106D01*
X2694157Y407506D01*
X2692609Y399722D01*
Y356222D01*
X2694157Y348438D01*
X2698567Y341839D01*
X2705166Y337430D01*
X2712950Y335881D01*
X2859450D01*
X2867234Y337430D01*
X2873833Y341839D01*
X2878242Y348438D01*
X2879791Y356222D01*
Y391149D01*
X2926259Y437617D01*
X2931312Y445179D01*
X2933086Y454098D01*
Y516404D01*
X2948492Y531810D01*
X2961192Y526549D01*
Y390654D01*
X2863658Y293120D01*
X2805040D01*
X2804754Y293063D01*
X2712950D01*
X2705166Y291515D01*
X2698567Y287106D01*
X2694157Y280506D01*
X2692609Y272722D01*
Y229222D01*
X2694157Y221438D01*
X2698567Y214839D01*
X2705166Y210430D01*
X2712950Y208881D01*
X2859450D01*
X2867234Y210430D01*
X2873833Y214839D01*
X2878242Y221438D01*
X2879791Y229222D01*
Y247793D01*
X2882232Y248279D01*
X2889793Y253331D01*
X3000981Y364519D01*
X3006034Y372081D01*
X3007808Y381000D01*
Y523746D01*
X3030756Y546694D01*
X3039528Y542538D01*
X3042248Y540225D01*
Y526250D01*
X3046785Y515297D01*
X3038293Y506805D01*
X3033241Y499244D01*
X3031467Y490324D01*
Y335100D01*
X3025444Y329078D01*
X3024929Y327834D01*
X3022327D01*
X3013407Y326060D01*
X3005846Y321008D01*
X2850958Y166120D01*
X2805040D01*
X2804754Y166063D01*
X2712950D01*
X2705166Y164515D01*
X2698567Y160106D01*
X2694157Y153506D01*
X2692609Y145722D01*
Y102222D01*
X2694157Y94438D01*
X2698567Y87839D01*
X2705166Y83430D01*
X2712950Y81881D01*
X2859450D01*
X2867234Y83430D01*
X2873833Y87839D01*
X2878242Y94438D01*
X2879791Y102222D01*
Y129029D01*
X3031060Y280298D01*
X3036162Y275196D01*
X3050165Y269396D01*
X3065322D01*
X3079326Y275196D01*
X3090043Y285914D01*
X3095844Y299917D01*
Y315075D01*
X3090043Y329078D01*
X3079326Y339796D01*
X3078082Y340311D01*
Y480670D01*
X3107210Y509798D01*
X3137700D01*
X3149334Y514616D01*
X3154152Y526250D01*
Y541250D01*
X3149334Y552883D01*
X3149334Y554617D01*
X3154152Y566250D01*
Y581250D01*
X3153581Y582630D01*
X3149641Y593750D01*
X3153581Y604871D01*
X3154152Y606250D01*
Y621250D01*
X3149334Y632883D01*
X3149334Y634617D01*
X3154152Y646250D01*
Y661250D01*
X3149334Y672883D01*
X3149334Y674617D01*
X3154152Y686250D01*
Y701250D01*
X3153581Y702630D01*
X3149641Y713750D01*
X3153581Y724871D01*
X3154152Y726250D01*
Y741250D01*
X3160401Y750602D01*
X3212310D01*
X3221230Y752376D01*
X3228791Y757429D01*
X3249567Y778205D01*
X3261300Y773344D01*
Y613350D01*
X3429000D01*
Y793750D01*
Y974150D01*
X3318486D01*
X3314031Y986850D01*
X3321600Y994418D01*
X3325635Y1004162D01*
X3333441Y1008999D01*
X3340100Y1009636D01*
X3352800Y1004375D01*
Y1054100D01*
X3365500D01*
Y1066800D01*
X3415225D01*
X3414480Y1068597D01*
X3422966Y1081298D01*
X3429200D01*
X3430579Y1081869D01*
X3441700Y1085809D01*
X3452821Y1081869D01*
D02*
G37*
%LPC*%
G36*
X2933700Y1561025D02*
Y1524000D01*
X2970725D01*
X2964066Y1540076D01*
X2949776Y1554366D01*
X2933700Y1561025D01*
D02*
G37*
G36*
X2908300D02*
X2892224Y1554366D01*
X2877934Y1540076D01*
X2871275Y1524000D01*
X2908300D01*
Y1561025D01*
D02*
G37*
G36*
X2692400Y1522925D02*
Y1485900D01*
X2729425D01*
X2722766Y1501976D01*
X2708476Y1516266D01*
X2692400Y1522925D01*
D02*
G37*
G36*
X2667000D02*
X2650924Y1516266D01*
X2636634Y1501976D01*
X2629975Y1485900D01*
X2667000D01*
Y1522925D01*
D02*
G37*
G36*
X2970725Y1498600D02*
X2933700D01*
Y1461575D01*
X2949776Y1468234D01*
X2964066Y1482524D01*
X2970725Y1498600D01*
D02*
G37*
G36*
X2908300D02*
X2871275D01*
X2877934Y1482524D01*
X2892224Y1468234D01*
X2908300Y1461575D01*
Y1498600D01*
D02*
G37*
G36*
X2500124Y1498724D02*
X2463800D01*
Y1460256D01*
X2500124D01*
Y1498724D01*
D02*
G37*
G36*
X2309624D02*
X2273300D01*
Y1460256D01*
X2309624D01*
Y1498724D01*
D02*
G37*
G36*
X2438400D02*
X2402076D01*
Y1460256D01*
X2438400D01*
Y1498724D01*
D02*
G37*
G36*
X2247900D02*
X2211576D01*
Y1460256D01*
X2247900D01*
Y1498724D01*
D02*
G37*
G36*
X2729425Y1460500D02*
X2692400D01*
Y1423475D01*
X2708476Y1430134D01*
X2722766Y1444424D01*
X2729425Y1460500D01*
D02*
G37*
G36*
X2667000D02*
X2629975D01*
X2636634Y1444424D01*
X2650924Y1430134D01*
X2667000Y1423475D01*
Y1460500D01*
D02*
G37*
G36*
X2971400Y1418900D02*
X2933700D01*
Y1386200D01*
X2971400D01*
Y1418900D01*
D02*
G37*
G36*
X2908300D02*
X2870600D01*
Y1386200D01*
X2908300D01*
Y1418900D01*
D02*
G37*
G36*
X3227400Y1426900D02*
X3187700D01*
Y1385200D01*
X3227400D01*
Y1426900D01*
D02*
G37*
G36*
X3059100Y1422900D02*
X3019400D01*
Y1381200D01*
X3059100D01*
Y1422900D01*
D02*
G37*
G36*
X3687500Y1347800D02*
X3645800D01*
Y1308100D01*
X3687500D01*
Y1347800D01*
D02*
G37*
G36*
X4753300Y1499200D02*
X4712600D01*
Y1460500D01*
X4753300D01*
Y1499200D01*
D02*
G37*
G36*
Y1435100D02*
X4712600D01*
Y1396400D01*
X4753300D01*
Y1435100D01*
D02*
G37*
G36*
X4648200Y1319725D02*
Y1282700D01*
X4685225D01*
X4678566Y1298776D01*
X4664276Y1313066D01*
X4648200Y1319725D01*
D02*
G37*
G36*
X4622800D02*
X4606724Y1313066D01*
X4592434Y1298776D01*
X4585775Y1282700D01*
X4622800D01*
Y1319725D01*
D02*
G37*
G36*
X4876800Y1387650D02*
X4784100D01*
Y1265950D01*
X4876800D01*
Y1387650D01*
D02*
G37*
G36*
X4685225Y1257300D02*
X4648200D01*
Y1220275D01*
X4664276Y1226934D01*
X4678566Y1241224D01*
X4685225Y1257300D01*
D02*
G37*
G36*
X4622800D02*
X4585775D01*
X4592434Y1241224D01*
X4606724Y1226934D01*
X4622800Y1220275D01*
Y1257300D01*
D02*
G37*
G36*
X4648200Y1205425D02*
Y1168400D01*
X4685225D01*
X4678566Y1184476D01*
X4664276Y1198766D01*
X4648200Y1205425D01*
D02*
G37*
G36*
X4622800D02*
X4606724Y1198766D01*
X4592434Y1184476D01*
X4585775Y1168400D01*
X4622800D01*
Y1205425D01*
D02*
G37*
G36*
X3964000Y1172900D02*
X3924300D01*
Y1131200D01*
X3964000D01*
Y1172900D01*
D02*
G37*
G36*
X3898900D02*
X3859200D01*
Y1131200D01*
X3898900D01*
Y1172900D01*
D02*
G37*
G36*
X4994900Y1240550D02*
X4902200D01*
Y1118850D01*
X4994900D01*
Y1240550D01*
D02*
G37*
G36*
X4876800D02*
X4784100D01*
Y1118850D01*
X4876800D01*
Y1240550D01*
D02*
G37*
G36*
X4685225Y1143000D02*
X4648200D01*
Y1105975D01*
X4664276Y1112634D01*
X4678566Y1126924D01*
X4685225Y1143000D01*
D02*
G37*
G36*
X4622800D02*
X4585775D01*
X4592434Y1126924D01*
X4606724Y1112634D01*
X4622800Y1105975D01*
Y1143000D01*
D02*
G37*
G36*
X4648200Y1091125D02*
Y1054100D01*
X4685225D01*
X4678566Y1070176D01*
X4664276Y1084466D01*
X4648200Y1091125D01*
D02*
G37*
G36*
X4622800D02*
X4606724Y1084466D01*
X4592434Y1070176D01*
X4585775Y1054100D01*
X4622800D01*
Y1091125D01*
D02*
G37*
G36*
X4685225Y1028700D02*
X4648200D01*
Y991675D01*
X4664276Y998334D01*
X4678566Y1012624D01*
X4685225Y1028700D01*
D02*
G37*
G36*
X4622800D02*
X4585775D01*
X4592434Y1012624D01*
X4606724Y998334D01*
X4622800Y991675D01*
Y1028700D01*
D02*
G37*
G36*
X3964000Y969700D02*
X3924300D01*
Y928000D01*
X3964000D01*
Y969700D01*
D02*
G37*
G36*
X4648200Y570425D02*
Y533400D01*
X4685225D01*
X4678566Y549476D01*
X4664276Y563766D01*
X4648200Y570425D01*
D02*
G37*
G36*
X4622800D02*
X4606724Y563766D01*
X4592434Y549476D01*
X4585775Y533400D01*
X4622800D01*
Y570425D01*
D02*
G37*
G36*
X4685225Y508000D02*
X4648200D01*
Y470975D01*
X4664276Y477634D01*
X4678566Y491924D01*
X4685225Y508000D01*
D02*
G37*
G36*
X4622800D02*
X4585775D01*
X4592434Y491924D01*
X4606724Y477634D01*
X4622800Y470975D01*
Y508000D01*
D02*
G37*
G36*
X3852112Y681050D02*
X3785200D01*
X3718288D01*
X3719419Y675364D01*
X3725585Y666135D01*
X3730039Y663159D01*
X3729248Y661250D01*
Y646250D01*
X3734066Y634617D01*
X3734066Y632883D01*
X3729248Y621250D01*
Y606250D01*
X3729819Y604871D01*
X3733759Y593750D01*
X3729819Y582630D01*
X3729248Y581250D01*
Y566250D01*
X3734066Y554617D01*
X3734066Y552883D01*
X3729248Y541250D01*
Y526250D01*
X3734066Y514616D01*
X3745700Y509798D01*
X3824700D01*
X3826256Y510442D01*
X3848026D01*
X3848100Y510368D01*
Y500421D01*
X3853900Y486418D01*
X3864618Y475700D01*
X3878621Y469900D01*
X3893779D01*
X3907782Y475700D01*
X3918500Y486418D01*
X3924300Y500421D01*
Y515579D01*
X3918500Y529582D01*
X3907782Y540300D01*
X3893779Y546100D01*
X3883895D01*
X3874930Y556456D01*
X3874438Y557833D01*
X3874704Y565142D01*
X3881062Y571500D01*
X3893779D01*
X3907782Y577300D01*
X3918500Y588018D01*
X3924300Y602021D01*
Y617179D01*
X3918500Y631182D01*
X3907782Y641900D01*
X3893779Y647700D01*
X3878621D01*
X3864618Y641900D01*
X3856645Y633926D01*
X3845149Y633721D01*
X3841629Y634742D01*
X3838614Y640121D01*
X3841152Y646250D01*
Y661250D01*
X3840361Y663159D01*
X3844815Y666135D01*
X3850981Y675364D01*
X3852112Y681050D01*
D02*
G37*
G36*
X4648200Y456125D02*
Y419100D01*
X4685225D01*
X4678566Y435176D01*
X4664276Y449466D01*
X4648200Y456125D01*
D02*
G37*
G36*
X4622800D02*
X4606724Y449466D01*
X4592434Y435176D01*
X4585775Y419100D01*
X4622800D01*
Y456125D01*
D02*
G37*
G36*
X4064600Y430900D02*
X4025900D01*
Y390200D01*
X4064600D01*
Y430900D01*
D02*
G37*
G36*
X4000500D02*
X3961800D01*
Y390200D01*
X4000500D01*
Y430900D01*
D02*
G37*
G36*
X4685225Y393700D02*
X4648200D01*
Y356675D01*
X4664276Y363334D01*
X4678566Y377624D01*
X4685225Y393700D01*
D02*
G37*
G36*
X4622800D02*
X4585775D01*
X4592434Y377624D01*
X4606724Y363334D01*
X4622800Y356675D01*
Y393700D01*
D02*
G37*
G36*
X3738300Y369900D02*
X3696600D01*
Y330200D01*
X3738300D01*
Y369900D01*
D02*
G37*
G36*
X4648200Y341825D02*
Y304800D01*
X4685225D01*
X4678566Y320876D01*
X4664276Y335166D01*
X4648200Y341825D01*
D02*
G37*
G36*
X4622800D02*
X4606724Y335166D01*
X4592434Y320876D01*
X4585775Y304800D01*
X4622800D01*
Y341825D01*
D02*
G37*
G36*
X3738300Y304800D02*
X3696600D01*
Y265100D01*
X3738300D01*
Y304800D01*
D02*
G37*
G36*
X4685225Y279400D02*
X4648200D01*
Y242375D01*
X4664276Y249034D01*
X4678566Y263324D01*
X4685225Y279400D01*
D02*
G37*
G36*
X4622800D02*
X4585775D01*
X4592434Y263324D01*
X4606724Y249034D01*
X4622800Y242375D01*
Y279400D01*
D02*
G37*
G36*
X4982200Y456950D02*
X4796800D01*
Y211550D01*
X4813832D01*
Y146095D01*
X4796837Y129100D01*
X4745000D01*
X4741900Y129100D01*
X4732300D01*
X4729200Y129100D01*
X4651900D01*
Y112208D01*
X4627974D01*
X4618982Y121200D01*
X4604979Y127000D01*
X4589821D01*
X4575818Y121200D01*
X4565100Y110482D01*
X4559300Y96479D01*
Y81321D01*
X4565100Y67318D01*
X4575818Y56600D01*
X4589821Y50800D01*
X4604979D01*
X4618982Y56600D01*
X4627974Y65592D01*
X4651900D01*
Y48700D01*
X4729200D01*
X4732300Y48700D01*
X4741900D01*
X4745000Y48700D01*
X4822300D01*
Y89010D01*
X4823421Y89759D01*
X4853621Y119959D01*
X4858674Y127521D01*
X4860448Y136440D01*
Y211550D01*
X4982200D01*
Y456950D01*
D02*
G37*
G36*
X4978400Y190500D02*
X4977724D01*
X4951884Y183576D01*
X4928716Y170200D01*
X4909800Y151284D01*
X4896424Y128116D01*
X4889500Y102276D01*
Y101600D01*
X4978400D01*
Y190500D01*
D02*
G37*
G36*
X1689100Y1345125D02*
Y1308100D01*
X1726125D01*
X1719466Y1324176D01*
X1705176Y1338466D01*
X1689100Y1345125D01*
D02*
G37*
G36*
X1663700D02*
X1647624Y1338466D01*
X1633334Y1324176D01*
X1626675Y1308100D01*
X1663700D01*
Y1345125D01*
D02*
G37*
G36*
X1726125Y1282700D02*
X1689100D01*
Y1245675D01*
X1705176Y1252334D01*
X1719466Y1266624D01*
X1726125Y1282700D01*
D02*
G37*
G36*
X1663700D02*
X1626675D01*
X1633334Y1266624D01*
X1647624Y1252334D01*
X1663700Y1245675D01*
Y1282700D01*
D02*
G37*
G36*
X825500Y1559950D02*
Y1522925D01*
X862525D01*
X855866Y1539001D01*
X841576Y1553291D01*
X825500Y1559950D01*
D02*
G37*
G36*
X800100D02*
X784024Y1553291D01*
X769734Y1539001D01*
X763075Y1522925D01*
X800100D01*
Y1559950D01*
D02*
G37*
G36*
X267285Y1519524D02*
X221177D01*
Y1473200D01*
X267285D01*
Y1519524D01*
D02*
G37*
G36*
X862525Y1497525D02*
X825500D01*
Y1460500D01*
X841576Y1467159D01*
X855866Y1481449D01*
X862525Y1497525D01*
D02*
G37*
G36*
X800100D02*
X763075D01*
X769734Y1481449D01*
X784024Y1467159D01*
X800100Y1460500D01*
Y1497525D01*
D02*
G37*
G36*
X267285Y1447800D02*
X221177D01*
Y1401476D01*
X267285D01*
Y1447800D01*
D02*
G37*
G36*
X190500Y1485900D02*
X101600D01*
Y1397000D01*
X102276D01*
X128116Y1403924D01*
X151284Y1417300D01*
X170200Y1436216D01*
X183576Y1459384D01*
X190500Y1485224D01*
Y1485900D01*
D02*
G37*
G36*
X982500Y1298562D02*
X939800D01*
Y1263362D01*
X982500D01*
Y1298562D01*
D02*
G37*
G36*
X914400D02*
X871700D01*
Y1263362D01*
X914400D01*
Y1298562D01*
D02*
G37*
G36*
X804700Y1301900D02*
X762000D01*
Y1261700D01*
X804700D01*
Y1301900D01*
D02*
G37*
G36*
X736600D02*
X693900D01*
Y1261700D01*
X736600D01*
Y1301900D01*
D02*
G37*
G36*
X215900Y1065725D02*
Y1028700D01*
X252925D01*
X246266Y1044776D01*
X231976Y1059066D01*
X215900Y1065725D01*
D02*
G37*
G36*
X190500D02*
X174424Y1059066D01*
X160134Y1044776D01*
X153475Y1028700D01*
X190500D01*
Y1065725D01*
D02*
G37*
G36*
X252925Y1003300D02*
X215900D01*
Y966275D01*
X231976Y972934D01*
X246266Y987224D01*
X252925Y1003300D01*
D02*
G37*
G36*
X190500D02*
X153475D01*
X160134Y987224D01*
X174424Y972934D01*
X190500Y966275D01*
Y1003300D01*
D02*
G37*
G36*
X215900Y875225D02*
Y838200D01*
X252925D01*
X246266Y854276D01*
X231976Y868566D01*
X215900Y875225D01*
D02*
G37*
G36*
X190500D02*
X174424Y868566D01*
X160134Y854276D01*
X153475Y838200D01*
X190500D01*
Y875225D01*
D02*
G37*
G36*
X252925Y812800D02*
X215900D01*
Y775775D01*
X231976Y782434D01*
X246266Y796724D01*
X252925Y812800D01*
D02*
G37*
G36*
X190500D02*
X153475D01*
X160134Y796724D01*
X174424Y782434D01*
X190500Y775775D01*
Y812800D01*
D02*
G37*
G36*
X215900Y684725D02*
Y647700D01*
X252925D01*
X246266Y663776D01*
X231976Y678066D01*
X215900Y684725D01*
D02*
G37*
G36*
X190500D02*
X174424Y678066D01*
X160134Y663776D01*
X153475Y647700D01*
X190500D01*
Y684725D01*
D02*
G37*
G36*
X252925Y622300D02*
X215900D01*
Y585275D01*
X231976Y591934D01*
X246266Y606224D01*
X252925Y622300D01*
D02*
G37*
G36*
X190500D02*
X153475D01*
X160134Y606224D01*
X174424Y591934D01*
X190500Y585275D01*
Y622300D01*
D02*
G37*
G36*
X267285Y198724D02*
X221177D01*
Y152400D01*
X267285D01*
Y198724D01*
D02*
G37*
G36*
X102276Y190500D02*
X101600D01*
Y101600D01*
X190500D01*
Y102276D01*
X183576Y128116D01*
X170200Y151284D01*
X151284Y170200D01*
X128116Y183576D01*
X102276Y190500D01*
D02*
G37*
G36*
X267285Y127000D02*
X221177D01*
Y80676D01*
X267285D01*
Y127000D01*
D02*
G37*
G36*
X2869800Y1215700D02*
X2832100D01*
Y1183000D01*
X2869800D01*
Y1215700D01*
D02*
G37*
G36*
X2806700D02*
X2769000D01*
Y1183000D01*
X2806700D01*
Y1215700D01*
D02*
G37*
G36*
X2732100Y1223700D02*
X2692400D01*
Y1182000D01*
X2732100D01*
Y1223700D01*
D02*
G37*
G36*
X2667000D02*
X2627300D01*
Y1182000D01*
X2667000D01*
Y1223700D01*
D02*
G37*
G36*
X2425700Y1141925D02*
Y1104900D01*
X2462725D01*
X2456066Y1120976D01*
X2441776Y1135266D01*
X2425700Y1141925D01*
D02*
G37*
G36*
X2400300D02*
X2384224Y1135266D01*
X2369934Y1120976D01*
X2363275Y1104900D01*
X2400300D01*
Y1141925D01*
D02*
G37*
G36*
X2462725Y1079500D02*
X2425700D01*
Y1042475D01*
X2441776Y1049134D01*
X2456066Y1063424D01*
X2462725Y1079500D01*
D02*
G37*
G36*
X2400300D02*
X2363275D01*
X2369934Y1063424D01*
X2384224Y1049134D01*
X2400300Y1042475D01*
Y1079500D01*
D02*
G37*
G36*
X2273300Y976825D02*
Y939800D01*
X2310325D01*
X2303666Y955876D01*
X2289376Y970166D01*
X2273300Y976825D01*
D02*
G37*
G36*
X2247900D02*
X2231824Y970166D01*
X2217534Y955876D01*
X2210875Y939800D01*
X2247900D01*
Y976825D01*
D02*
G37*
G36*
X1280595Y977500D02*
X1244145D01*
Y939800D01*
X1280595D01*
Y977500D01*
D02*
G37*
G36*
X1218745D02*
X1182295D01*
Y939800D01*
X1218745D01*
Y977500D01*
D02*
G37*
G36*
X842800Y933600D02*
X800100D01*
Y893400D01*
X842800D01*
Y933600D01*
D02*
G37*
G36*
X774700D02*
X732000D01*
Y893400D01*
X774700D01*
Y933600D01*
D02*
G37*
G36*
X2310325Y914400D02*
X2273300D01*
Y877375D01*
X2289376Y884034D01*
X2303666Y898324D01*
X2310325Y914400D01*
D02*
G37*
G36*
X2247900D02*
X2210875D01*
X2217534Y898324D01*
X2231824Y884034D01*
X2247900Y877375D01*
Y914400D01*
D02*
G37*
G36*
X1280595D02*
X1244145D01*
Y876700D01*
X1280595D01*
Y914400D01*
D02*
G37*
G36*
X1218745D02*
X1182295D01*
Y876700D01*
X1218745D01*
Y914400D01*
D02*
G37*
G36*
X3415225Y1041400D02*
X3378200D01*
Y1004375D01*
X3394276Y1011034D01*
X3408566Y1025324D01*
X3415225Y1041400D01*
D02*
G37*
G36*
X2640700Y839800D02*
X2599000D01*
Y800100D01*
X2640700D01*
Y839800D01*
D02*
G37*
G36*
Y774700D02*
X2599000D01*
Y735000D01*
X2640700D01*
Y774700D01*
D02*
G37*
G36*
X1651000Y672025D02*
Y635000D01*
X1688025D01*
X1681366Y651076D01*
X1667076Y665366D01*
X1651000Y672025D01*
D02*
G37*
G36*
X1625600D02*
X1609524Y665366D01*
X1595234Y651076D01*
X1588575Y635000D01*
X1625600D01*
Y672025D01*
D02*
G37*
G36*
X1434025D02*
Y635000D01*
X1471050D01*
X1464391Y651076D01*
X1450101Y665366D01*
X1434025Y672025D01*
D02*
G37*
G36*
X1408625D02*
X1392549Y665366D01*
X1378259Y651076D01*
X1371600Y635000D01*
X1408625D01*
Y672025D01*
D02*
G37*
G36*
X1688025Y609600D02*
X1651000D01*
Y572575D01*
X1667076Y579234D01*
X1681366Y593524D01*
X1688025Y609600D01*
D02*
G37*
G36*
X1625600D02*
X1588575D01*
X1595234Y593524D01*
X1609524Y579234D01*
X1625600Y572575D01*
Y609600D01*
D02*
G37*
G36*
X1471050D02*
X1434025D01*
Y572575D01*
X1450101Y579234D01*
X1464391Y593524D01*
X1471050Y609600D01*
D02*
G37*
G36*
X1408625D02*
X1371600D01*
X1378259Y593524D01*
X1392549Y579234D01*
X1408625Y572575D01*
Y609600D01*
D02*
G37*
G36*
X1206500Y595825D02*
Y558800D01*
X1243525D01*
X1236866Y574876D01*
X1222576Y589166D01*
X1206500Y595825D01*
D02*
G37*
G36*
X1181100D02*
X1165024Y589166D01*
X1150734Y574876D01*
X1144075Y558800D01*
X1181100D01*
Y595825D01*
D02*
G37*
G36*
X842800Y592500D02*
X800100D01*
Y552300D01*
X842800D01*
Y592500D01*
D02*
G37*
G36*
X1243525Y533400D02*
X1206500D01*
Y496375D01*
X1222576Y503034D01*
X1236866Y517324D01*
X1243525Y533400D01*
D02*
G37*
G36*
X1181100D02*
X1144075D01*
X1150734Y517324D01*
X1165024Y503034D01*
X1181100Y496375D01*
Y533400D01*
D02*
G37*
G36*
X2565400Y532325D02*
Y495300D01*
X2602425D01*
X2595766Y511376D01*
X2581476Y525666D01*
X2565400Y532325D01*
D02*
G37*
G36*
X2540000D02*
X2523924Y525666D01*
X2509634Y511376D01*
X2502975Y495300D01*
X2540000D01*
Y532325D01*
D02*
G37*
G36*
X2286000D02*
Y495300D01*
X2323025D01*
X2316366Y511376D01*
X2302076Y525666D01*
X2286000Y532325D01*
D02*
G37*
G36*
X2260600D02*
X2244524Y525666D01*
X2230234Y511376D01*
X2223575Y495300D01*
X2260600D01*
Y532325D01*
D02*
G37*
G36*
X1434025Y519625D02*
Y482600D01*
X1471050D01*
X1464391Y498676D01*
X1450101Y512966D01*
X1434025Y519625D01*
D02*
G37*
G36*
X1408625D02*
X1392549Y512966D01*
X1378259Y498676D01*
X1371600Y482600D01*
X1408625D01*
Y519625D01*
D02*
G37*
G36*
X1651000Y494225D02*
Y457200D01*
X1688025D01*
X1681366Y473276D01*
X1667076Y487566D01*
X1651000Y494225D01*
D02*
G37*
G36*
X1625600D02*
X1609524Y487566D01*
X1595234Y473276D01*
X1588575Y457200D01*
X1625600D01*
Y494225D01*
D02*
G37*
G36*
X2773500Y492272D02*
X2679660D01*
Y483222D01*
X2682194Y470483D01*
X2689411Y459683D01*
X2700211Y452467D01*
X2712950Y449933D01*
X2773500D01*
Y492272D01*
D02*
G37*
G36*
X2602425Y469900D02*
X2565400D01*
Y432875D01*
X2581476Y439534D01*
X2595766Y453824D01*
X2602425Y469900D01*
D02*
G37*
G36*
X2540000D02*
X2502975D01*
X2509634Y453824D01*
X2523924Y439534D01*
X2540000Y432875D01*
Y469900D01*
D02*
G37*
G36*
X2323025D02*
X2286000D01*
Y432875D01*
X2302076Y439534D01*
X2316366Y453824D01*
X2323025Y469900D01*
D02*
G37*
G36*
X2260600D02*
X2223575D01*
X2230234Y453824D01*
X2244524Y439534D01*
X2260600Y432875D01*
Y469900D01*
D02*
G37*
G36*
X1471050Y457200D02*
X1434025D01*
Y420175D01*
X1450101Y426834D01*
X1464391Y441124D01*
X1471050Y457200D01*
D02*
G37*
G36*
X1408625D02*
X1371600D01*
X1378259Y441124D01*
X1392549Y426834D01*
X1408625Y420175D01*
Y457200D01*
D02*
G37*
G36*
X1688025Y431800D02*
X1651000D01*
Y394775D01*
X1667076Y401434D01*
X1681366Y415724D01*
X1688025Y431800D01*
D02*
G37*
G36*
X1625600D02*
X1588575D01*
X1595234Y415724D01*
X1609524Y401434D01*
X1625600Y394775D01*
Y431800D01*
D02*
G37*
G36*
X2425700Y405325D02*
Y368300D01*
X2462725D01*
X2456066Y384376D01*
X2441776Y398666D01*
X2425700Y405325D01*
D02*
G37*
G36*
X2400300D02*
X2384224Y398666D01*
X2369934Y384376D01*
X2363275Y368300D01*
X2400300D01*
Y405325D01*
D02*
G37*
G36*
X2462725Y342900D02*
X2425700D01*
Y305875D01*
X2441776Y312534D01*
X2456066Y326824D01*
X2462725Y342900D01*
D02*
G37*
G36*
X2400300D02*
X2363275D01*
X2369934Y326824D01*
X2384224Y312534D01*
X2400300Y305875D01*
Y342900D01*
D02*
G37*
G36*
X2286000Y315350D02*
Y278325D01*
X2323025D01*
X2316366Y294401D01*
X2302076Y308691D01*
X2286000Y315350D01*
D02*
G37*
G36*
X2260600D02*
X2244524Y308691D01*
X2230234Y294401D01*
X2223575Y278325D01*
X2260600D01*
Y315350D01*
D02*
G37*
G36*
X2323025Y252925D02*
X2286000D01*
Y215900D01*
X2302076Y222559D01*
X2316366Y236849D01*
X2323025Y252925D01*
D02*
G37*
G36*
X2260600D02*
X2223575D01*
X2230234Y236849D01*
X2244524Y222559D01*
X2260600Y215900D01*
Y252925D01*
D02*
G37*
G36*
X1180104Y368300D02*
X1156696D01*
X1134086Y362242D01*
X1113814Y350538D01*
X1097262Y333986D01*
X1085558Y313714D01*
X1079500Y291104D01*
Y267696D01*
X1085558Y245086D01*
X1097262Y224814D01*
X1113814Y208262D01*
X1134086Y196558D01*
X1156696Y190500D01*
X1180104D01*
X1202714Y196558D01*
X1222986Y208262D01*
X1239538Y224814D01*
X1251242Y245086D01*
X1257300Y267696D01*
Y291104D01*
X1251242Y313714D01*
X1239538Y333986D01*
X1222986Y350538D01*
X1202714Y362242D01*
X1180104Y368300D01*
D02*
G37*
%LPD*%
D10*
X1231445Y927100D02*
D03*
X1333955D02*
D03*
D11*
X587600Y968750D02*
D03*
Y918750D02*
D03*
Y868750D02*
D03*
Y818750D02*
D03*
Y768750D02*
D03*
Y718750D02*
D03*
Y668750D02*
D03*
Y618750D02*
D03*
D12*
Y1033750D02*
D03*
Y553750D02*
D03*
Y1113750D02*
D03*
Y473750D02*
D03*
D13*
X787400Y880700D02*
D03*
Y795700D02*
D03*
Y690200D02*
D03*
Y605200D02*
D03*
X749300Y1164000D02*
D03*
Y1249000D02*
D03*
D14*
X1701800Y1408800D02*
D03*
Y1486800D02*
D03*
X1790700Y127900D02*
D03*
Y49900D02*
D03*
D15*
X2020689Y1346200D02*
D03*
X1865512D02*
D03*
D16*
X2260600Y1447556D02*
D03*
Y1371844D02*
D03*
X2451100Y1447556D02*
D03*
Y1371844D02*
D03*
D17*
X1905000Y1064685D02*
D03*
Y1145115D02*
D03*
D18*
X1310215Y1092200D02*
D03*
X1229785D02*
D03*
D19*
X1481629Y1466600D02*
D03*
Y1371600D02*
D03*
Y1276600D02*
D03*
X1261571D02*
D03*
Y1371600D02*
D03*
D20*
Y1466600D02*
D03*
D21*
X1740700Y1049900D02*
D03*
Y1159900D02*
D03*
D22*
X3987800Y1250400D02*
D03*
Y1340400D02*
D03*
D23*
X380415Y1460500D02*
D03*
X279985D02*
D03*
X380415Y139700D02*
D03*
X279985D02*
D03*
D24*
X4782100Y88900D02*
D03*
X4692100D02*
D03*
D25*
X3162300Y240400D02*
D03*
Y318400D02*
D03*
X3911600Y1040500D02*
D03*
Y1118500D02*
D03*
X2679700Y1091300D02*
D03*
Y1169300D02*
D03*
X3911600Y837300D02*
D03*
Y915300D02*
D03*
X3071800Y1290500D02*
D03*
Y1368500D02*
D03*
X3175000Y1294500D02*
D03*
Y1372500D02*
D03*
D26*
X3785200Y533750D02*
D03*
Y573750D02*
D03*
Y613750D02*
D03*
Y653750D02*
D03*
Y693750D02*
D03*
Y733750D02*
D03*
Y773750D02*
D03*
Y813750D02*
D03*
Y853750D02*
D03*
Y893750D02*
D03*
Y933750D02*
D03*
Y973750D02*
D03*
Y1013750D02*
D03*
Y1053750D02*
D03*
X3098200D02*
D03*
Y1013750D02*
D03*
Y973750D02*
D03*
Y933750D02*
D03*
Y893750D02*
D03*
Y853750D02*
D03*
Y813750D02*
D03*
Y773750D02*
D03*
Y733750D02*
D03*
Y693750D02*
D03*
Y653750D02*
D03*
Y613750D02*
D03*
Y573750D02*
D03*
Y533750D02*
D03*
D27*
X3181700Y450250D02*
D03*
X3221700D02*
D03*
X3261700D02*
D03*
X3301700D02*
D03*
X3341700D02*
D03*
X3381700D02*
D03*
X3421700D02*
D03*
X3461700D02*
D03*
X3501700D02*
D03*
X3541700D02*
D03*
X3581700D02*
D03*
X3621700D02*
D03*
X3661700D02*
D03*
X3701700D02*
D03*
Y1137250D02*
D03*
X3661700D02*
D03*
X3621700D02*
D03*
X3581700D02*
D03*
X3541700D02*
D03*
X3501700D02*
D03*
X3461700D02*
D03*
X3421700D02*
D03*
X3381700D02*
D03*
X3341700D02*
D03*
X3301700D02*
D03*
X3261700D02*
D03*
X3221700D02*
D03*
X3181700D02*
D03*
D28*
X3441700Y793750D02*
D03*
D29*
X2786200Y504972D02*
D03*
Y123972D02*
D03*
Y250972D02*
D03*
Y377972D02*
D03*
X2065200Y504972D02*
D03*
Y377972D02*
D03*
Y250972D02*
D03*
Y123972D02*
D03*
D30*
X927100Y1155662D02*
D03*
Y1250662D02*
D03*
D31*
X2652400Y977900D02*
D03*
X2732400D02*
D03*
X2652400Y889000D02*
D03*
X2732400D02*
D03*
D32*
X2972700Y825500D02*
D03*
X2894700D02*
D03*
X2731400Y787400D02*
D03*
X2653400D02*
D03*
X3633100Y1295400D02*
D03*
X3555100D02*
D03*
X3605900Y317500D02*
D03*
X3683900D02*
D03*
D33*
X4318000Y1268750D02*
D03*
Y318750D02*
D03*
D34*
X4621900Y1447800D02*
D03*
X4699900D02*
D03*
D35*
X4013200Y443600D02*
D03*
Y521600D02*
D03*
D36*
X2921000Y1373500D02*
D03*
Y1293500D02*
D03*
X2819400Y1170300D02*
D03*
Y1090300D02*
D03*
D37*
X4889500Y334250D02*
D03*
D38*
Y1253250D02*
D03*
D39*
X1333955Y927100D02*
X1566755Y1159900D01*
X1647442D01*
X702707Y549150D02*
X803729Y448128D01*
X587600Y553750D02*
X592200Y549150D01*
X702707D01*
X587600Y1033750D02*
X738361D01*
X927100D01*
X738361D02*
X749300Y1044689D01*
Y1164000D01*
X803729Y448128D02*
Y448128D01*
X787400Y167193D02*
Y426357D01*
X921601Y469900D02*
X927100D01*
X787400Y431799D02*
X803729Y448128D01*
X899830Y448128D02*
X921601Y469900D01*
X803729Y448128D02*
X899830D01*
X990600Y1409700D02*
Y1511300D01*
Y1409700D02*
X1028700Y1371600D01*
X1261571D01*
X927100Y1033750D02*
Y1155662D01*
X1018721Y1033750D02*
X1077171Y1092200D01*
X1028700Y1549400D02*
X1641200D01*
X990600Y1511300D02*
X1028700Y1549400D01*
X975360Y917501D02*
Y1033750D01*
X736600Y88900D02*
Y116393D01*
X787400Y167193D01*
X1530742Y1276600D02*
X1647442Y1159900D01*
X2452509Y1371844D02*
X2465700Y1358653D01*
Y1293500D02*
Y1358653D01*
X2260600Y1371844D02*
X2452509D01*
X2046332D02*
X2260600D01*
X2020689Y1346200D02*
X2046332Y1371844D01*
X1905000Y1064685D02*
X1979085D01*
X1751285D02*
X1905000D01*
X1740700Y1054100D02*
X1751285Y1064685D01*
X1740700Y1049900D02*
Y1054100D01*
X1890215Y1159900D02*
X1905000Y1145115D01*
X1740700Y1159900D02*
X1890215D01*
X1647442D02*
X1740700D01*
X1481629Y1276600D02*
X1530742D01*
X2020689Y1106289D02*
Y1346200D01*
X1979085Y1064685D02*
X2020689Y1106289D01*
X2921000Y1293500D02*
X3070200D01*
X2465700D02*
X2921000D01*
X1855828Y1355884D02*
X1865512Y1346200D01*
X1855828Y1355884D02*
Y1444010D01*
X1701800Y1486800D02*
X1813038D01*
X1855828Y1444010D01*
X1641200Y1549400D02*
X1700200Y1490400D01*
Y1488400D02*
Y1490400D01*
Y1488400D02*
X1701800Y1486800D01*
X1536700Y939800D02*
X2112000D01*
X2465700Y1293500D01*
X1077171Y1092200D02*
X1261571Y1276600D01*
X975360Y1033750D02*
X1018721D01*
X927100D02*
X931606D01*
X975360D01*
X1435100Y304800D02*
X1524000D01*
X1168400Y88900D02*
X1187840Y108340D01*
X1238640D01*
X1435100Y304800D01*
X1524000Y215900D02*
Y304800D01*
X1612000Y127900D02*
X1790700D01*
X1524000Y215900D02*
X1612000Y127900D01*
X1790700D02*
X1959664D01*
X3424500Y1293600D02*
X3426299Y1295400D01*
X3554200D01*
X3175900Y1293600D02*
X3424500D01*
X1959664Y127900D02*
X1959992Y127572D01*
X2061600D02*
X2065200Y123972D01*
X1959992Y127572D02*
X2061600D01*
X3073400Y1292500D02*
X3173400D01*
X3175000Y1294100D01*
D40*
X3181700Y339800D02*
Y493115D01*
X3260085Y571500D02*
X3502000D01*
X3181700Y493115D02*
X3260085Y571500D01*
X3785040Y813590D02*
X3785200Y813750D01*
X3644900Y635000D02*
Y813590D01*
X3695700Y889000D02*
X3703948D01*
X3644900Y813590D02*
X3785040D01*
X3541700Y531800D02*
X3644900Y635000D01*
Y813590D02*
Y939800D01*
X3541860Y1042840D02*
X3644900Y939800D01*
X3739038Y853910D02*
X3785040D01*
X3703948Y889000D02*
X3739038Y853910D01*
X2794000Y698500D02*
X2829250Y733750D01*
X3098200D01*
X1828800Y698500D02*
X2794000D01*
X1765300Y635000D02*
X1828800Y698500D01*
X381000Y965200D02*
Y1460500D01*
X427450Y918750D02*
X587600D01*
X381000Y965200D02*
X427450Y918750D01*
X428250Y618750D02*
X587600D01*
X380415Y570915D02*
X428250Y618750D01*
X380415Y139700D02*
Y570915D01*
X2897500Y1090300D02*
X3014050Y973750D01*
X3098200D01*
X3098360Y973590D01*
X3179452Y838200D02*
X3187700D01*
X3098200Y853750D02*
X3098360Y853590D01*
X3164062D01*
X3179452Y838200D01*
X2984290Y813910D02*
X3155162D01*
X2972700Y825500D02*
X2984290Y813910D01*
X2970700Y825500D02*
X2972700D01*
X3131420Y1013750D02*
X3160050D01*
X3554650Y1295850D02*
X3555100Y1295400D01*
X3554200D02*
X3554650Y1295850D01*
X3542400Y1283600D02*
X3554200Y1295400D01*
X3073300Y1053910D02*
Y1292600D01*
X3098200Y1013322D02*
X3131420D01*
X1644320Y1419172D02*
X1691428D01*
X1701800Y1408800D01*
X1596892Y1466600D02*
X1644320Y1419172D01*
X1481629Y1466600D02*
X1596892D01*
X1374461Y1156661D02*
Y1313544D01*
X1432517Y1371600D02*
X1481629D01*
X1310215Y1092200D02*
Y1092415D01*
X1374461Y1156661D01*
Y1313544D02*
X1432517Y1371600D01*
X1077171Y1092200D02*
X1229785D01*
X3987800Y1347900D02*
X3989977Y1350077D01*
X4050860Y1447360D02*
X4223160D01*
X3989977Y1386477D02*
X4050860Y1447360D01*
X3989977Y1350077D02*
Y1386477D01*
X4001060Y1245600D02*
X4025900Y1220760D01*
X4000500Y1245600D02*
X4001060D01*
X4025900Y825500D02*
Y1220760D01*
X4779797Y86597D02*
X4799440Y106240D01*
X4806940D02*
X4837140Y136440D01*
X4779797Y79097D02*
Y86597D01*
X4799440Y106240D02*
X4806940D01*
X4837140Y136440D02*
Y281890D01*
X4889500Y334250D01*
X4597400Y88900D02*
X4687300D01*
X3381700Y407386D02*
X3405836Y383250D01*
X3426750D02*
X3581400Y228600D01*
X3381700Y407386D02*
Y450250D01*
X3405836Y383250D02*
X3426750D01*
X3341860Y400537D02*
Y450090D01*
X3322800Y372891D02*
Y372900D01*
Y372891D02*
X3335044Y360647D01*
Y259056D02*
Y360647D01*
X3653489Y88900D02*
X3670300D01*
X3390019Y352370D02*
X3390019D01*
X3301700Y394000D02*
Y450250D01*
X3355820Y386568D02*
X3390019Y352370D01*
X3301700Y394000D02*
X3322800Y372900D01*
X3355820Y386568D02*
Y386577D01*
X3390019Y352370D02*
X3653489Y88900D01*
X3341860Y400537D02*
X3355820Y386577D01*
X3289300Y88900D02*
Y351497D01*
X3261700Y379097D02*
X3289300Y351497D01*
X3581400Y228600D02*
X3721100D01*
X3860800Y88900D01*
X3124200D02*
X3251200Y215900D01*
X3221700Y372400D02*
X3251200Y342900D01*
Y215900D02*
Y342900D01*
X3221700Y372400D02*
Y450250D01*
X3261700Y379097D02*
Y450250D01*
X3335044Y259056D02*
X3479800Y114300D01*
Y88900D02*
Y114300D01*
X3341700Y450250D02*
X3341860Y450090D01*
X3098800Y88900D02*
X3124200D01*
X3162300Y318400D02*
Y320400D01*
X3181700Y339800D01*
X3857680Y533750D02*
X3883430Y508000D01*
X3886200D01*
X3785200Y533750D02*
X3857680D01*
X3785200Y573750D02*
X3850350D01*
X3886200Y609600D01*
X3627748Y1041400D02*
X3640098Y1053750D01*
X3619500Y1041400D02*
X3627748D01*
X3640098Y1053750D02*
X3785200D01*
X3739036Y1013590D02*
X3785040D01*
X3703346Y977900D02*
X3739036Y1013590D01*
X3695700Y977900D02*
X3703346D01*
X3541860Y1042840D02*
Y1137090D01*
X3785040Y1013590D02*
X3785200Y1013750D01*
X3541700Y1137250D02*
Y1168930D01*
X3759200Y1295400D02*
Y1411232D01*
X3661700Y1197900D02*
X3759200Y1295400D01*
X3661700Y1137250D02*
Y1197900D01*
X3701860Y1168400D02*
X3738773D01*
X3886200Y1315827D02*
Y1498600D01*
X3738773Y1168400D02*
X3886200Y1315827D01*
X3701700Y1137250D02*
Y1168240D01*
X3701860Y1168400D01*
X3695700Y1474732D02*
Y1498600D01*
Y1474732D02*
X3759200Y1411232D01*
X2901926Y693750D02*
X3098200D01*
X3542400Y1169630D02*
Y1283600D01*
X3073300Y1053910D02*
X3073460Y1053750D01*
X3098200D01*
X3866023Y827767D02*
X3902067D01*
X3911600Y837300D01*
X3785200Y773750D02*
X3974150D01*
X4025900Y825500D01*
X3901750Y733750D02*
X4013200Y622300D01*
X3098360Y773910D02*
X3212310D01*
X3251200Y812800D02*
Y914400D01*
X3212310Y773910D02*
X3251200Y812800D01*
X2819400Y1090300D02*
X2897500D01*
X2680700D02*
X2819400D01*
X3541700Y381700D02*
Y450250D01*
Y381700D02*
X3605900Y317500D01*
X2847584Y775640D02*
X2941957D01*
X2953860Y787543D01*
Y808660D01*
X1955800Y635000D02*
X2843176D01*
X2953860Y808660D02*
X2970700Y825500D01*
X2843176Y635000D02*
X2901926Y693750D01*
X3852200Y870908D02*
Y979100D01*
X3192010Y973590D02*
X3221605Y943995D01*
X2864472Y578472D02*
X2939750Y653750D01*
X2138700Y578472D02*
X2864472D01*
X2997470Y613750D02*
X3098200D01*
X2909778Y526058D02*
X2997470Y613750D01*
X3054774Y304527D02*
Y490324D01*
X3098200Y533750D01*
X3181700Y1137250D02*
Y1287800D01*
X2984500Y381000D02*
Y533400D01*
X3024850Y573750D01*
X3066360D01*
X3066520Y853750D02*
X3098200D01*
X3541700Y1168930D02*
X3542400Y1169630D01*
X3785200Y813750D02*
X3785360Y813910D01*
X3852166D01*
X3866023Y827767D01*
X3160050Y1013750D02*
X3187700Y1041400D01*
X3098200Y773750D02*
X3098360Y773910D01*
X3785040Y853910D02*
X3785200Y853750D01*
X3785360Y853910D01*
X3835202D01*
X3852200Y870908D01*
X3098360Y973590D02*
X3192010D01*
X2939750Y653750D02*
X3098200D01*
X3785200Y733750D02*
X3901750D01*
X3155162Y813910D02*
X3179452Y838200D01*
X3541700Y1137250D02*
X3541860Y1137090D01*
X3502000Y571500D02*
X3541700Y531800D01*
Y450250D02*
Y531800D01*
X3098200Y1053750D02*
X3098360Y1053590D01*
X3175510D01*
X3187700Y1041400D01*
X4013200Y521600D02*
Y622300D01*
X2873312Y269812D02*
X2984500Y381000D01*
X2805040Y269812D02*
X2873312D01*
X2786200Y250972D02*
X2805040Y269812D01*
X2909778Y454098D02*
Y526058D01*
X2854000Y398320D02*
X2909778Y454098D01*
X2854000Y394272D02*
Y398320D01*
X2837700Y377972D02*
X2854000Y394272D01*
X2786200Y377972D02*
X2837700D01*
X2065200Y504972D02*
X2138700Y578472D01*
X3911600Y1038500D02*
Y1040500D01*
X3852200Y979100D02*
X3911600Y1038500D01*
X1765300Y342900D02*
Y635000D01*
Y342900D02*
X1857228Y250972D01*
X2065200D01*
X3221605Y943995D02*
X3251200Y914400D01*
X1905000Y584200D02*
X1955800Y635000D01*
X1905000Y429533D02*
Y584200D01*
Y429533D02*
X1956560Y377972D01*
X2065200D01*
X4223160Y1447360D02*
X4318000Y1352520D01*
Y1358900D02*
X4406900Y1447800D01*
X4318000Y1268750D02*
Y1358900D01*
X4406900Y1447800D02*
X4621900D01*
X3289300Y1011690D02*
Y1016000D01*
X3221605Y943995D02*
X3289300Y1011690D01*
X2679700Y1091300D02*
X2680700Y1090300D01*
X2731400Y787400D02*
X2835824D01*
X2847584Y775640D01*
X4318000Y318750D02*
Y427660D01*
X4223160Y522500D02*
X4318000Y427660D01*
Y325100D02*
Y427660D01*
X4223160Y522500D02*
X4318000Y427660D01*
X4013200Y522500D02*
X4223160D01*
X2805040Y142812D02*
X2860612D01*
X3022327Y304527D02*
X3054774D01*
X2860612Y142812D02*
X3022327Y304527D01*
X2786200Y123972D02*
X2805040Y142812D01*
D41*
X784900Y690200D02*
X789900D01*
X756350Y718750D02*
X784900Y690200D01*
X587600Y718750D02*
X756350D01*
X784900Y795700D02*
X789900D01*
X757950Y768750D02*
X784900Y795700D01*
X545100Y768750D02*
X757950D01*
X587121Y868271D02*
X587600Y868750D01*
X495300Y732792D02*
Y850900D01*
X512671Y868271D02*
X587121D01*
X495300Y850900D02*
X512671Y868271D01*
X509342Y718750D02*
X587600D01*
X495300Y732792D02*
X509342Y718750D01*
X542086Y771765D02*
Y815735D01*
X545100Y818750D01*
X587600D01*
X542086Y771765D02*
X545100Y768750D01*
X1713071Y824071D02*
X2421188D01*
X2548903Y951785D01*
X2627843D01*
X2641885Y967385D02*
X2652400Y977900D01*
X2641885Y899515D02*
X2652400Y889000D01*
X2564092Y915115D02*
X2627843D01*
X2641885Y901072D01*
Y899515D02*
Y901072D01*
Y965827D02*
Y967385D01*
X2436378Y787400D02*
X2564092Y915115D01*
X2627843Y951785D02*
X2641885Y965827D01*
X1728260Y787400D02*
X2436378D01*
X1665475Y724615D02*
X1728260Y787400D01*
X1650285Y761285D02*
X1713071Y824071D01*
X805414Y775327D02*
Y780185D01*
X819457Y761285D02*
X1650285D01*
X805414Y775327D02*
X819457Y761285D01*
Y724615D02*
X1665475D01*
X789900Y795700D02*
X805414Y780185D01*
Y705715D02*
Y710572D01*
X819457Y724615D01*
X789900Y690200D02*
X805414Y705715D01*
X2742915Y965827D02*
X2756957Y951785D01*
Y915115D02*
X2887115D01*
X2906815Y895415D01*
X2902304Y951785D02*
X2922004Y932085D01*
X2742915Y899515D02*
Y901072D01*
X2756957Y951785D02*
X2902304D01*
X2922004Y932085D02*
X3096535D01*
X2742915Y901072D02*
X2756957Y915115D01*
X2732400Y889000D02*
X2742915Y899515D01*
X2906815Y895415D02*
X3096536D01*
X2742915Y965827D02*
Y967385D01*
X2732400Y977900D02*
X2742915Y967385D01*
D42*
X931606Y1033750D02*
X932150Y1034294D01*
D43*
X112100Y1225750D02*
D03*
Y361750D02*
D03*
D44*
X530100Y1225750D02*
D03*
Y361750D02*
D03*
D45*
X480100Y1082750D02*
D03*
Y504750D02*
D03*
D46*
X736600Y88900D02*
D03*
X977900D02*
D03*
X3860800D02*
D03*
X3670300D02*
D03*
X3479800D02*
D03*
X3289300D02*
D03*
X3098800D02*
D03*
X3886200Y1498600D02*
D03*
X1168400Y279400D02*
D03*
X977900D02*
D03*
X1168400Y88900D02*
D03*
X3695700Y1498600D02*
D03*
X3505200D02*
D03*
X3314700D02*
D03*
X4991100Y88900D02*
D03*
X88900Y1498600D02*
D03*
Y88900D02*
D03*
X4991100Y1498600D02*
D03*
D47*
X3365500Y1054100D02*
D03*
X2921000Y1511300D02*
D03*
X3695700Y889000D02*
D03*
X2260600Y927100D02*
D03*
X1193800Y546100D02*
D03*
X2679700Y1473200D02*
D03*
X1676400Y1295400D02*
D03*
X4597400Y88900D02*
D03*
X203200Y635000D02*
D03*
Y825500D02*
D03*
Y1016000D02*
D03*
X2273300Y265625D02*
D03*
X2413000Y355600D02*
D03*
X2552700Y482600D02*
D03*
X2273300D02*
D03*
X812800Y1510225D02*
D03*
X2413000Y1092200D02*
D03*
X1638300Y444500D02*
D03*
Y622300D02*
D03*
X1421325Y469900D02*
D03*
Y622300D02*
D03*
X4635500Y520700D02*
D03*
Y406400D02*
D03*
Y292100D02*
D03*
Y1041400D02*
D03*
Y1155700D02*
D03*
Y1270000D02*
D03*
X3886200Y508000D02*
D03*
Y609600D02*
D03*
X3695700Y977900D02*
D03*
X3619500Y1041400D02*
D03*
X3187700Y838200D02*
D03*
Y1041400D02*
D03*
X3289300Y1016000D02*
D03*
X3057744Y307496D02*
D03*
D48*
X975360Y917501D02*
D03*
X927100Y469900D02*
D03*
X1536700Y939800D02*
D03*
X1524000Y304800D02*
D03*
%TF.MD5,bee518a5719132ff4a6c0a9e01f46a91*%
M02*
