%TF.GenerationSoftware,Altium Limited,Altium Designer,23.10.1 (27)*%
G04 Layer_Physical_Order=2*
G04 Layer_Color=16711680*
%FSLAX45Y45*%
%MOMM*%
%TF.SameCoordinates,D187A3F4-093A-4DDC-863C-0592D449728B*%
%TF.FilePolarity,Positive*%
%TF.FileFunction,Copper,L2,Bot,Signal*%
%TF.Part,Single*%
G01*
G75*
%TA.AperFunction,Conductor*%
%ADD39C,0.50800*%
%ADD40C,0.20320*%
%TA.AperFunction,ComponentPad*%
G04:AMPARAMS|DCode=43|XSize=1mm|YSize=1.8mm|CornerRadius=0.5mm|HoleSize=0mm|Usage=FLASHONLY|Rotation=270.000|XOffset=0mm|YOffset=0mm|HoleType=Round|Shape=RoundedRectangle|*
%AMROUNDEDRECTD43*
21,1,1.00000,0.80000,0,0,270.0*
21,1,0.00000,1.80000,0,0,270.0*
1,1,1.00000,-0.40000,0.00000*
1,1,1.00000,-0.40000,0.00000*
1,1,1.00000,0.40000,0.00000*
1,1,1.00000,0.40000,0.00000*
%
%ADD43ROUNDEDRECTD43*%
G04:AMPARAMS|DCode=44|XSize=1mm|YSize=2.1mm|CornerRadius=0.5mm|HoleSize=0mm|Usage=FLASHONLY|Rotation=270.000|XOffset=0mm|YOffset=0mm|HoleType=Round|Shape=RoundedRectangle|*
%AMROUNDEDRECTD44*
21,1,1.00000,1.10000,0,0,270.0*
21,1,0.00000,2.10000,0,0,270.0*
1,1,1.00000,-0.55000,0.00000*
1,1,1.00000,-0.55000,0.00000*
1,1,1.00000,0.55000,0.00000*
1,1,1.00000,0.55000,0.00000*
%
%ADD44ROUNDEDRECTD44*%
%ADD45C,0.65000*%
%TA.AperFunction,ViaPad*%
%ADD46C,1.52400*%
%ADD47C,0.50800*%
%ADD48C,0.71120*%
G36*
X4923616Y1574800D02*
X4909800Y1560984D01*
X4896424Y1537816D01*
X4889500Y1511976D01*
Y1511300D01*
X4991100D01*
Y1498600D01*
X5003800D01*
Y1397000D01*
X5004476D01*
X5030316Y1403924D01*
X5053484Y1417300D01*
X5067301Y1431117D01*
X5080001Y1425856D01*
Y161644D01*
X5067301Y156383D01*
X5053484Y170200D01*
X5030316Y183576D01*
X5004476Y190500D01*
X5003800D01*
Y88900D01*
X4991100D01*
Y76200D01*
X4889500D01*
Y75524D01*
X4896424Y49684D01*
X4909800Y26516D01*
X4923614Y12701D01*
X4918354Y1D01*
X3910023D01*
X3906620Y12701D01*
X3915386Y17762D01*
X3931938Y34314D01*
X3943642Y54586D01*
X3949700Y77196D01*
Y100604D01*
X3943642Y123214D01*
X3931938Y143486D01*
X3915386Y160038D01*
X3895114Y171742D01*
X3872504Y177800D01*
X3849096D01*
X3826486Y171742D01*
X3806214Y160038D01*
X3789662Y143486D01*
X3777958Y123214D01*
X3771900Y100604D01*
Y77196D01*
X3777958Y54586D01*
X3789662Y34314D01*
X3806214Y17762D01*
X3814980Y12701D01*
X3811577Y1D01*
X3719523D01*
X3716120Y12701D01*
X3724886Y17762D01*
X3741438Y34314D01*
X3753142Y54586D01*
X3759200Y77196D01*
Y100604D01*
X3753142Y123214D01*
X3741438Y143486D01*
X3724886Y160038D01*
X3704614Y171742D01*
X3682004Y177800D01*
X3658596D01*
X3635986Y171742D01*
X3615714Y160038D01*
X3599162Y143486D01*
X3587458Y123214D01*
X3581400Y100604D01*
Y77196D01*
X3587458Y54586D01*
X3599162Y34314D01*
X3615714Y17762D01*
X3624480Y12701D01*
X3621077Y1D01*
X3529023D01*
X3525620Y12701D01*
X3534386Y17762D01*
X3550938Y34314D01*
X3562642Y54586D01*
X3568700Y77196D01*
Y100604D01*
X3562642Y123214D01*
X3550938Y143486D01*
X3534386Y160038D01*
X3514114Y171742D01*
X3491504Y177800D01*
X3468096D01*
X3445486Y171742D01*
X3425214Y160038D01*
X3408662Y143486D01*
X3396958Y123214D01*
X3390900Y100604D01*
Y77196D01*
X3396958Y54586D01*
X3408662Y34314D01*
X3425214Y17762D01*
X3433980Y12701D01*
X3430577Y1D01*
X3338523D01*
X3335120Y12701D01*
X3343886Y17762D01*
X3360438Y34314D01*
X3372142Y54586D01*
X3378200Y77196D01*
Y100604D01*
X3372142Y123214D01*
X3360438Y143486D01*
X3343886Y160038D01*
X3323614Y171742D01*
X3301004Y177800D01*
X3277596D01*
X3254986Y171742D01*
X3234714Y160038D01*
X3218162Y143486D01*
X3206458Y123214D01*
X3200400Y100604D01*
Y77196D01*
X3206458Y54586D01*
X3218162Y34314D01*
X3234714Y17762D01*
X3243480Y12701D01*
X3240077Y1D01*
X3148023D01*
X3144620Y12701D01*
X3153386Y17762D01*
X3169938Y34314D01*
X3181642Y54586D01*
X3187700Y77196D01*
Y100604D01*
X3181642Y123214D01*
X3169938Y143486D01*
X3153386Y160038D01*
X3133114Y171742D01*
X3110504Y177800D01*
X3087096D01*
X3064486Y171742D01*
X3044214Y160038D01*
X3027662Y143486D01*
X3015958Y123214D01*
X3009900Y100604D01*
Y77196D01*
X3015958Y54586D01*
X3027662Y34314D01*
X3044214Y17762D01*
X3052980Y12701D01*
X3049577Y1D01*
X1217623D01*
X1214220Y12701D01*
X1222986Y17762D01*
X1239538Y34314D01*
X1251242Y54586D01*
X1257300Y77196D01*
Y100604D01*
X1251242Y123214D01*
X1239538Y143486D01*
X1222986Y160038D01*
X1202714Y171742D01*
X1180104Y177800D01*
X1156696D01*
X1134086Y171742D01*
X1113814Y160038D01*
X1097262Y143486D01*
X1086569Y124964D01*
X1080527Y124334D01*
X1073150Y125975D01*
X1072576Y128116D01*
X1059200Y151284D01*
X1040284Y170200D01*
X1017116Y183576D01*
X1014975Y184150D01*
X1013334Y191527D01*
X1013964Y197569D01*
X1032486Y208262D01*
X1049038Y224814D01*
X1060742Y245086D01*
X1066800Y267696D01*
Y291104D01*
X1060742Y313714D01*
X1055044Y323582D01*
X1114554Y383092D01*
X1222246D01*
X1469419Y135919D01*
X1476981Y130866D01*
X1485900Y129092D01*
X2471978D01*
X2480897Y130866D01*
X2488459Y135919D01*
X2938832Y586292D01*
X3855626D01*
X3864618Y577300D01*
X3878621Y571500D01*
X3893779D01*
X3907782Y577300D01*
X3918500Y588018D01*
X3924300Y602021D01*
Y617179D01*
X3918500Y631182D01*
X3907782Y641900D01*
X3893779Y647700D01*
X3878621D01*
X3864618Y641900D01*
X3855626Y632908D01*
X2929178D01*
X2920258Y631134D01*
X2912696Y626081D01*
X2462323Y175708D01*
X1495555D01*
X1248381Y422881D01*
X1240819Y427934D01*
X1231900Y429708D01*
X1104900D01*
X1095981Y427934D01*
X1088419Y422881D01*
X1022082Y356544D01*
X1012214Y362242D01*
X989604Y368300D01*
X966196D01*
X943586Y362242D01*
X923314Y350538D01*
X906762Y333986D01*
X895058Y313714D01*
X889000Y291104D01*
Y267696D01*
X895058Y245086D01*
X906762Y224814D01*
X923314Y208262D01*
X941836Y197569D01*
X942466Y191527D01*
X940825Y184150D01*
X938684Y183576D01*
X915516Y170200D01*
X896600Y151284D01*
X883224Y128116D01*
X876300Y102276D01*
Y101600D01*
X977900D01*
Y76200D01*
X876300D01*
Y75524D01*
X883224Y49684D01*
X896600Y26516D01*
X910414Y12701D01*
X905154Y1D01*
X785823D01*
X782420Y12701D01*
X791186Y17762D01*
X807738Y34314D01*
X819442Y54586D01*
X825500Y77196D01*
Y100604D01*
X819442Y123214D01*
X807738Y143486D01*
X791186Y160038D01*
X770914Y171742D01*
X748304Y177800D01*
X724896D01*
X702286Y171742D01*
X682014Y160038D01*
X665462Y143486D01*
X653758Y123214D01*
X647700Y100604D01*
Y77196D01*
X653758Y54586D01*
X665462Y34314D01*
X682014Y17762D01*
X690780Y12701D01*
X687377Y1D01*
X161646D01*
X156386Y12701D01*
X170200Y26516D01*
X183576Y49684D01*
X190500Y75524D01*
Y76200D01*
X88900D01*
Y88900D01*
X76200D01*
Y190500D01*
X75524D01*
X49684Y183576D01*
X26516Y170200D01*
X12700Y156384D01*
X0Y161645D01*
Y337734D01*
X12700Y338985D01*
X13038Y337286D01*
X26896Y316546D01*
X47636Y302688D01*
X72100Y297822D01*
X152100D01*
X176564Y302688D01*
X197304Y316546D01*
X211162Y337286D01*
X216028Y361750D01*
X211162Y386214D01*
X197304Y406954D01*
X176564Y420812D01*
X152100Y425678D01*
X72100D01*
X47636Y420812D01*
X26896Y406954D01*
X13038Y386214D01*
X12700Y384515D01*
X0Y385766D01*
Y1201734D01*
X12700Y1202985D01*
X13038Y1201286D01*
X26896Y1180546D01*
X47636Y1166688D01*
X72100Y1161822D01*
X152100D01*
X176564Y1166688D01*
X197304Y1180546D01*
X211162Y1201286D01*
X216028Y1225750D01*
X211162Y1250214D01*
X197304Y1270954D01*
X176564Y1284812D01*
X152100Y1289678D01*
X72100D01*
X47636Y1284812D01*
X26896Y1270954D01*
X13038Y1250214D01*
X12700Y1248515D01*
X0Y1249766D01*
Y1425855D01*
X12700Y1431116D01*
X26516Y1417300D01*
X49684Y1403924D01*
X75524Y1397000D01*
X76200D01*
Y1498600D01*
X88900D01*
Y1511300D01*
X190500D01*
Y1511976D01*
X183576Y1537816D01*
X170200Y1560984D01*
X156384Y1574800D01*
X161645Y1587500D01*
X3265479D01*
X3268882Y1574800D01*
X3260114Y1569738D01*
X3243562Y1553186D01*
X3231858Y1532914D01*
X3225800Y1510304D01*
Y1486896D01*
X3231858Y1464286D01*
X3243562Y1444014D01*
X3260114Y1427462D01*
X3280386Y1415758D01*
X3291392Y1412809D01*
Y1231900D01*
X3293166Y1222981D01*
X3298219Y1215419D01*
X3552219Y961419D01*
X3559781Y956366D01*
X3568700Y954592D01*
X3665126D01*
X3674118Y945600D01*
X3688121Y939800D01*
X3703279D01*
X3717282Y945600D01*
X3728000Y956318D01*
X3733800Y970321D01*
Y985479D01*
X3728000Y999482D01*
X3717282Y1010200D01*
X3703279Y1016000D01*
X3688121D01*
X3674118Y1010200D01*
X3665126Y1001208D01*
X3651150D01*
X3645889Y1013908D01*
X3651800Y1019818D01*
X3657600Y1033821D01*
Y1048979D01*
X3651800Y1062982D01*
X3641082Y1073700D01*
X3627079Y1079500D01*
X3614362D01*
X3528508Y1165354D01*
Y1412809D01*
X3539514Y1415758D01*
X3559786Y1427462D01*
X3576338Y1444014D01*
X3588042Y1464286D01*
X3594100Y1486896D01*
Y1510304D01*
X3588042Y1532914D01*
X3576338Y1553186D01*
X3559786Y1569738D01*
X3551018Y1574800D01*
X3554421Y1587500D01*
X3646479D01*
X3649882Y1574800D01*
X3641114Y1569738D01*
X3624562Y1553186D01*
X3612858Y1532914D01*
X3606800Y1510304D01*
Y1486896D01*
X3612858Y1464286D01*
X3624562Y1444014D01*
X3641114Y1427462D01*
X3661386Y1415758D01*
X3683996Y1409700D01*
X3707404D01*
X3730014Y1415758D01*
X3750286Y1427462D01*
X3766838Y1444014D01*
X3778542Y1464286D01*
X3784600Y1486896D01*
Y1510304D01*
X3778542Y1532914D01*
X3766838Y1553186D01*
X3750286Y1569738D01*
X3741518Y1574800D01*
X3744921Y1587500D01*
X3836979D01*
X3840382Y1574800D01*
X3831614Y1569738D01*
X3815062Y1553186D01*
X3803358Y1532914D01*
X3797300Y1510304D01*
Y1486896D01*
X3803358Y1464286D01*
X3815062Y1444014D01*
X3831614Y1427462D01*
X3851886Y1415758D01*
X3874496Y1409700D01*
X3897904D01*
X3920514Y1415758D01*
X3940786Y1427462D01*
X3957338Y1444014D01*
X3969042Y1464286D01*
X3975100Y1486896D01*
Y1510304D01*
X3969042Y1532914D01*
X3957338Y1553186D01*
X3940786Y1569738D01*
X3932018Y1574800D01*
X3935421Y1587500D01*
X4918355D01*
X4923616Y1574800D01*
D02*
G37*
G36*
X3459382D02*
X3450614Y1569738D01*
X3434062Y1553186D01*
X3422358Y1532914D01*
X3416300Y1510304D01*
Y1486896D01*
X3422358Y1464286D01*
X3434062Y1444014D01*
X3450614Y1427462D01*
X3470886Y1415758D01*
X3481892Y1412809D01*
Y1155700D01*
X3483666Y1146781D01*
X3488719Y1139219D01*
X3581400Y1046538D01*
Y1033821D01*
X3587200Y1019818D01*
X3589884Y1017134D01*
X3585066Y1004540D01*
X3576117Y1003446D01*
X3338008Y1241555D01*
Y1412809D01*
X3349014Y1415758D01*
X3369286Y1427462D01*
X3385838Y1444014D01*
X3397542Y1464286D01*
X3403600Y1486896D01*
Y1510304D01*
X3397542Y1532914D01*
X3385838Y1553186D01*
X3369286Y1569738D01*
X3360518Y1574800D01*
X3363921Y1587500D01*
X3455979D01*
X3459382Y1574800D01*
D02*
G37*
%LPC*%
G36*
X2933700Y1561025D02*
Y1524000D01*
X2970725D01*
X2964066Y1540076D01*
X2949776Y1554366D01*
X2933700Y1561025D01*
D02*
G37*
G36*
X2908300D02*
X2892224Y1554366D01*
X2877934Y1540076D01*
X2871275Y1524000D01*
X2908300D01*
Y1561025D01*
D02*
G37*
G36*
X825500Y1559950D02*
Y1522925D01*
X862525D01*
X855866Y1539001D01*
X841576Y1553291D01*
X825500Y1559950D01*
D02*
G37*
G36*
X800100D02*
X784024Y1553291D01*
X769734Y1539001D01*
X763075Y1522925D01*
X800100D01*
Y1559950D01*
D02*
G37*
G36*
X2692400Y1522925D02*
Y1485900D01*
X2729425D01*
X2722766Y1501976D01*
X2708476Y1516266D01*
X2692400Y1522925D01*
D02*
G37*
G36*
X2667000D02*
X2650924Y1516266D01*
X2636634Y1501976D01*
X2629975Y1485900D01*
X2667000D01*
Y1522925D01*
D02*
G37*
G36*
X2970725Y1498600D02*
X2933700D01*
Y1461575D01*
X2949776Y1468234D01*
X2964066Y1482524D01*
X2970725Y1498600D01*
D02*
G37*
G36*
X2908300D02*
X2871275D01*
X2877934Y1482524D01*
X2892224Y1468234D01*
X2908300Y1461575D01*
Y1498600D01*
D02*
G37*
G36*
X862525Y1497525D02*
X825500D01*
Y1460500D01*
X841576Y1467159D01*
X855866Y1481449D01*
X862525Y1497525D01*
D02*
G37*
G36*
X800100D02*
X763075D01*
X769734Y1481449D01*
X784024Y1467159D01*
X800100Y1460500D01*
Y1497525D01*
D02*
G37*
G36*
X2729425Y1460500D02*
X2692400D01*
Y1423475D01*
X2708476Y1430134D01*
X2722766Y1444424D01*
X2729425Y1460500D01*
D02*
G37*
G36*
X2667000D02*
X2629975D01*
X2636634Y1444424D01*
X2650924Y1430134D01*
X2667000Y1423475D01*
Y1460500D01*
D02*
G37*
G36*
X4978400Y1485900D02*
X4889500D01*
Y1485224D01*
X4896424Y1459384D01*
X4909800Y1436216D01*
X4928716Y1417300D01*
X4951884Y1403924D01*
X4977724Y1397000D01*
X4978400D01*
Y1485900D01*
D02*
G37*
G36*
X190500D02*
X101600D01*
Y1397000D01*
X102276D01*
X128116Y1403924D01*
X151284Y1417300D01*
X170200Y1436216D01*
X183576Y1459384D01*
X190500Y1485224D01*
Y1485900D01*
D02*
G37*
G36*
X1689100Y1345125D02*
Y1308100D01*
X1726125D01*
X1719466Y1324176D01*
X1705176Y1338466D01*
X1689100Y1345125D01*
D02*
G37*
G36*
X1663700D02*
X1647624Y1338466D01*
X1633334Y1324176D01*
X1626675Y1308100D01*
X1663700D01*
Y1345125D01*
D02*
G37*
G36*
X4648200Y1319725D02*
Y1282700D01*
X4685225D01*
X4678566Y1298776D01*
X4664276Y1313066D01*
X4648200Y1319725D01*
D02*
G37*
G36*
X4622800D02*
X4606724Y1313066D01*
X4592434Y1298776D01*
X4585775Y1282700D01*
X4622800D01*
Y1319725D01*
D02*
G37*
G36*
X1726125Y1282700D02*
X1689100D01*
Y1245675D01*
X1705176Y1252334D01*
X1719466Y1266624D01*
X1726125Y1282700D01*
D02*
G37*
G36*
X1663700D02*
X1626675D01*
X1633334Y1266624D01*
X1647624Y1252334D01*
X1663700Y1245675D01*
Y1282700D01*
D02*
G37*
G36*
X4685225Y1257300D02*
X4648200D01*
Y1220275D01*
X4664276Y1226934D01*
X4678566Y1241224D01*
X4685225Y1257300D01*
D02*
G37*
G36*
X4622800D02*
X4585775D01*
X4592434Y1241224D01*
X4606724Y1226934D01*
X4622800Y1220275D01*
Y1257300D01*
D02*
G37*
G36*
X4648200Y1205425D02*
Y1168400D01*
X4685225D01*
X4678566Y1184476D01*
X4664276Y1198766D01*
X4648200Y1205425D01*
D02*
G37*
G36*
X4622800D02*
X4606724Y1198766D01*
X4592434Y1184476D01*
X4585775Y1168400D01*
X4622800D01*
Y1205425D01*
D02*
G37*
G36*
X585100Y1289678D02*
X475100D01*
X450635Y1284812D01*
X429896Y1270954D01*
X416038Y1250214D01*
X411171Y1225750D01*
X416038Y1201286D01*
X429896Y1180546D01*
X450635Y1166688D01*
X475100Y1161822D01*
X585100D01*
X609564Y1166688D01*
X630304Y1180546D01*
X644162Y1201286D01*
X649028Y1225750D01*
X644162Y1250214D01*
X630304Y1270954D01*
X609564Y1284812D01*
X585100Y1289678D01*
D02*
G37*
G36*
X4685225Y1143000D02*
X4648200D01*
Y1105975D01*
X4664276Y1112634D01*
X4678566Y1126924D01*
X4685225Y1143000D01*
D02*
G37*
G36*
X4622800D02*
X4585775D01*
X4592434Y1126924D01*
X4606724Y1112634D01*
X4622800Y1105975D01*
Y1143000D01*
D02*
G37*
G36*
X2425700Y1141925D02*
Y1104900D01*
X2462725D01*
X2456066Y1120976D01*
X2441776Y1135266D01*
X2425700Y1141925D01*
D02*
G37*
G36*
X2400300D02*
X2384224Y1135266D01*
X2369934Y1120976D01*
X2363275Y1104900D01*
X2400300D01*
Y1141925D01*
D02*
G37*
G36*
X3378200Y1103825D02*
Y1066800D01*
X3415225D01*
X3408566Y1082876D01*
X3394276Y1097166D01*
X3378200Y1103825D01*
D02*
G37*
G36*
X4648200Y1091125D02*
Y1054100D01*
X4685225D01*
X4678566Y1070176D01*
X4664276Y1084466D01*
X4648200Y1091125D01*
D02*
G37*
G36*
X4622800D02*
X4606724Y1084466D01*
X4592434Y1070176D01*
X4585775Y1054100D01*
X4622800D01*
Y1091125D01*
D02*
G37*
G36*
X3352800Y1103825D02*
X3336724Y1097166D01*
X3322434Y1082876D01*
X3314700Y1064205D01*
Y1060465D01*
X3302000Y1051979D01*
X3296879Y1054100D01*
X3281721D01*
X3267718Y1048300D01*
X3257000Y1037582D01*
X3251200Y1023579D01*
Y1008421D01*
X3257000Y994418D01*
X3267718Y983700D01*
X3281721Y977900D01*
X3294438D01*
X3399819Y872519D01*
X3407381Y867466D01*
X3416300Y865692D01*
X3665126D01*
X3674118Y856700D01*
X3688121Y850900D01*
X3703279D01*
X3717282Y856700D01*
X3728000Y867418D01*
X3733800Y881421D01*
Y896579D01*
X3728000Y910582D01*
X3717282Y921300D01*
X3703279Y927100D01*
X3688121D01*
X3674118Y921300D01*
X3665126Y912308D01*
X3425954D01*
X3343980Y994282D01*
X3351174Y1005049D01*
X3352800Y1004375D01*
Y1054100D01*
Y1103825D01*
D02*
G37*
G36*
X2462725Y1079500D02*
X2425700D01*
Y1042475D01*
X2441776Y1049134D01*
X2456066Y1063424D01*
X2462725Y1079500D01*
D02*
G37*
G36*
X2400300D02*
X2363275D01*
X2369934Y1063424D01*
X2384224Y1049134D01*
X2400300Y1042475D01*
Y1079500D01*
D02*
G37*
G36*
X489091Y1127950D02*
X471109D01*
X454496Y1121069D01*
X441781Y1108354D01*
X434900Y1091741D01*
Y1073759D01*
X441781Y1057146D01*
X454496Y1044431D01*
X471109Y1037550D01*
X489091D01*
X505704Y1044431D01*
X518419Y1057146D01*
X525300Y1073759D01*
Y1091741D01*
X518419Y1108354D01*
X505704Y1121069D01*
X489091Y1127950D01*
D02*
G37*
G36*
X215900Y1065725D02*
Y1028700D01*
X252925D01*
X246266Y1044776D01*
X231976Y1059066D01*
X215900Y1065725D01*
D02*
G37*
G36*
X190500D02*
X174424Y1059066D01*
X160134Y1044776D01*
X153475Y1028700D01*
X190500D01*
Y1065725D01*
D02*
G37*
G36*
X3415225Y1041400D02*
X3378200D01*
Y1004375D01*
X3394276Y1011034D01*
X3408566Y1025324D01*
X3415225Y1041400D01*
D02*
G37*
G36*
X4685225Y1028700D02*
X4648200D01*
Y991675D01*
X4664276Y998334D01*
X4678566Y1012624D01*
X4685225Y1028700D01*
D02*
G37*
G36*
X4622800D02*
X4585775D01*
X4592434Y1012624D01*
X4606724Y998334D01*
X4622800Y991675D01*
Y1028700D01*
D02*
G37*
G36*
X252925Y1003300D02*
X215900D01*
Y966275D01*
X231976Y972934D01*
X246266Y987224D01*
X252925Y1003300D01*
D02*
G37*
G36*
X190500D02*
X153475D01*
X160134Y987224D01*
X174424Y972934D01*
X190500Y966275D01*
Y1003300D01*
D02*
G37*
G36*
X2273300Y976825D02*
Y939800D01*
X2310325D01*
X2303666Y955876D01*
X2289376Y970166D01*
X2273300Y976825D01*
D02*
G37*
G36*
X2247900D02*
X2231824Y970166D01*
X2217534Y955876D01*
X2210875Y939800D01*
X2247900D01*
Y976825D01*
D02*
G37*
G36*
X2310325Y914400D02*
X2273300D01*
Y877375D01*
X2289376Y884034D01*
X2303666Y898324D01*
X2310325Y914400D01*
D02*
G37*
G36*
X2247900D02*
X2210875D01*
X2217534Y898324D01*
X2231824Y884034D01*
X2247900Y877375D01*
Y914400D01*
D02*
G37*
G36*
X215900Y875225D02*
Y838200D01*
X252925D01*
X246266Y854276D01*
X231976Y868566D01*
X215900Y875225D01*
D02*
G37*
G36*
X190500D02*
X174424Y868566D01*
X160134Y854276D01*
X153475Y838200D01*
X190500D01*
Y875225D01*
D02*
G37*
G36*
X3187700Y1080247D02*
X3183947Y1079500D01*
X3180121D01*
X3176587Y1078036D01*
X3172834Y1077289D01*
X3169653Y1075164D01*
X3166118Y1073700D01*
X3163413Y1070994D01*
X3160231Y1068869D01*
X3158106Y1065687D01*
X3155400Y1062982D01*
X3153936Y1059447D01*
X3151811Y1056266D01*
X3151064Y1052513D01*
X3149600Y1048979D01*
Y1045153D01*
X3148853Y1041400D01*
Y838200D01*
X3149600Y834447D01*
Y830621D01*
X3151064Y827087D01*
X3151811Y823334D01*
X3153936Y820153D01*
X3155400Y816618D01*
X3158106Y813913D01*
X3160231Y810731D01*
X3163413Y808606D01*
X3166118Y805900D01*
X3169653Y804436D01*
X3172834Y802311D01*
X3176587Y801564D01*
X3180121Y800100D01*
X3183947D01*
X3187700Y799353D01*
X3191453Y800100D01*
X3195279D01*
X3198813Y801564D01*
X3202566Y802311D01*
X3205747Y804436D01*
X3209282Y805900D01*
X3211987Y808606D01*
X3215169Y810731D01*
X3217294Y813913D01*
X3220000Y816618D01*
X3221464Y820153D01*
X3223589Y823334D01*
X3224336Y827087D01*
X3225800Y830621D01*
Y834447D01*
X3226547Y838200D01*
Y1041400D01*
X3225800Y1045153D01*
Y1048979D01*
X3224336Y1052513D01*
X3223589Y1056266D01*
X3221464Y1059447D01*
X3220000Y1062982D01*
X3217294Y1065687D01*
X3215169Y1068869D01*
X3211987Y1070994D01*
X3209282Y1073700D01*
X3205747Y1075164D01*
X3202566Y1077289D01*
X3198813Y1078036D01*
X3195279Y1079500D01*
X3191453D01*
X3187700Y1080247D01*
D02*
G37*
G36*
X252925Y812800D02*
X215900D01*
Y775775D01*
X231976Y782434D01*
X246266Y796724D01*
X252925Y812800D01*
D02*
G37*
G36*
X190500D02*
X153475D01*
X160134Y796724D01*
X174424Y782434D01*
X190500Y775775D01*
Y812800D01*
D02*
G37*
G36*
X215900Y684725D02*
Y647700D01*
X252925D01*
X246266Y663776D01*
X231976Y678066D01*
X215900Y684725D01*
D02*
G37*
G36*
X190500D02*
X174424Y678066D01*
X160134Y663776D01*
X153475Y647700D01*
X190500D01*
Y684725D01*
D02*
G37*
G36*
X1651000Y672025D02*
Y635000D01*
X1688025D01*
X1681366Y651076D01*
X1667076Y665366D01*
X1651000Y672025D01*
D02*
G37*
G36*
X1625600D02*
X1609524Y665366D01*
X1595234Y651076D01*
X1588575Y635000D01*
X1625600D01*
Y672025D01*
D02*
G37*
G36*
X1434025D02*
Y635000D01*
X1471050D01*
X1464391Y651076D01*
X1450101Y665366D01*
X1434025Y672025D01*
D02*
G37*
G36*
X1408625D02*
X1392549Y665366D01*
X1378259Y651076D01*
X1371600Y635000D01*
X1408625D01*
Y672025D01*
D02*
G37*
G36*
X252925Y622300D02*
X215900D01*
Y585275D01*
X231976Y591934D01*
X246266Y606224D01*
X252925Y622300D01*
D02*
G37*
G36*
X190500D02*
X153475D01*
X160134Y606224D01*
X174424Y591934D01*
X190500Y585275D01*
Y622300D01*
D02*
G37*
G36*
X1688025Y609600D02*
X1651000D01*
Y572575D01*
X1667076Y579234D01*
X1681366Y593524D01*
X1688025Y609600D01*
D02*
G37*
G36*
X1625600D02*
X1588575D01*
X1595234Y593524D01*
X1609524Y579234D01*
X1625600Y572575D01*
Y609600D01*
D02*
G37*
G36*
X1471050D02*
X1434025D01*
Y572575D01*
X1450101Y579234D01*
X1464391Y593524D01*
X1471050Y609600D01*
D02*
G37*
G36*
X1408625D02*
X1371600D01*
X1378259Y593524D01*
X1392549Y579234D01*
X1408625Y572575D01*
Y609600D01*
D02*
G37*
G36*
X1206500Y595825D02*
Y558800D01*
X1243525D01*
X1236866Y574876D01*
X1222576Y589166D01*
X1206500Y595825D01*
D02*
G37*
G36*
X1181100D02*
X1165024Y589166D01*
X1150734Y574876D01*
X1144075Y558800D01*
X1181100D01*
Y595825D01*
D02*
G37*
G36*
X4648200Y570425D02*
Y533400D01*
X4685225D01*
X4678566Y549476D01*
X4664276Y563766D01*
X4648200Y570425D01*
D02*
G37*
G36*
X4622800D02*
X4606724Y563766D01*
X4592434Y549476D01*
X4585775Y533400D01*
X4622800D01*
Y570425D01*
D02*
G37*
G36*
X1243525Y533400D02*
X1206500D01*
Y496375D01*
X1222576Y503034D01*
X1236866Y517324D01*
X1243525Y533400D01*
D02*
G37*
G36*
X1181100D02*
X1144075D01*
X1150734Y517324D01*
X1165024Y503034D01*
X1181100Y496375D01*
Y533400D01*
D02*
G37*
G36*
X2565400Y532325D02*
Y495300D01*
X2602425D01*
X2595766Y511376D01*
X2581476Y525666D01*
X2565400Y532325D01*
D02*
G37*
G36*
X2540000D02*
X2523924Y525666D01*
X2509634Y511376D01*
X2502975Y495300D01*
X2540000D01*
Y532325D01*
D02*
G37*
G36*
X2286000D02*
Y495300D01*
X2323025D01*
X2316366Y511376D01*
X2302076Y525666D01*
X2286000Y532325D01*
D02*
G37*
G36*
X2260600D02*
X2244524Y525666D01*
X2230234Y511376D01*
X2223575Y495300D01*
X2260600D01*
Y532325D01*
D02*
G37*
G36*
X1434025Y519625D02*
Y482600D01*
X1471050D01*
X1464391Y498676D01*
X1450101Y512966D01*
X1434025Y519625D01*
D02*
G37*
G36*
X1408625D02*
X1392549Y512966D01*
X1378259Y498676D01*
X1371600Y482600D01*
X1408625D01*
Y519625D01*
D02*
G37*
G36*
X4685225Y508000D02*
X4648200D01*
Y470975D01*
X4664276Y477634D01*
X4678566Y491924D01*
X4685225Y508000D01*
D02*
G37*
G36*
X4622800D02*
X4585775D01*
X4592434Y491924D01*
X4606724Y477634D01*
X4622800Y470975D01*
Y508000D01*
D02*
G37*
G36*
X3893779Y546100D02*
X3878621D01*
X3864618Y540300D01*
X3855626Y531308D01*
X3033135D01*
X3024216Y529534D01*
X3016654Y524481D01*
X2566281Y74108D01*
X1406654D01*
X1245544Y235218D01*
X1251242Y245086D01*
X1257300Y267696D01*
Y291104D01*
X1251242Y313714D01*
X1239538Y333986D01*
X1222986Y350538D01*
X1202714Y362242D01*
X1180104Y368300D01*
X1156696D01*
X1134086Y362242D01*
X1113814Y350538D01*
X1097262Y333986D01*
X1085558Y313714D01*
X1079500Y291104D01*
Y267696D01*
X1085558Y245086D01*
X1097262Y224814D01*
X1113814Y208262D01*
X1134086Y196558D01*
X1156696Y190500D01*
X1180104D01*
X1202714Y196558D01*
X1212582Y202256D01*
X1380519Y34319D01*
X1388081Y29266D01*
X1397000Y27492D01*
X2575935D01*
X2584855Y29266D01*
X2592416Y34319D01*
X3042790Y484692D01*
X3855626D01*
X3864618Y475700D01*
X3878621Y469900D01*
X3893779D01*
X3907782Y475700D01*
X3918500Y486418D01*
X3924300Y500421D01*
Y515579D01*
X3918500Y529582D01*
X3907782Y540300D01*
X3893779Y546100D01*
D02*
G37*
G36*
X489091Y549950D02*
X471109D01*
X454496Y543069D01*
X441781Y530354D01*
X434900Y513741D01*
Y495759D01*
X441781Y479146D01*
X454496Y466431D01*
X471109Y459550D01*
X489091D01*
X505704Y466431D01*
X518419Y479146D01*
X525300Y495759D01*
Y513741D01*
X518419Y530354D01*
X505704Y543069D01*
X489091Y549950D01*
D02*
G37*
G36*
X1651000Y494225D02*
Y457200D01*
X1688025D01*
X1681366Y473276D01*
X1667076Y487566D01*
X1651000Y494225D01*
D02*
G37*
G36*
X1625600D02*
X1609524Y487566D01*
X1595234Y473276D01*
X1588575Y457200D01*
X1625600D01*
Y494225D01*
D02*
G37*
G36*
X2602425Y469900D02*
X2565400D01*
Y432875D01*
X2581476Y439534D01*
X2595766Y453824D01*
X2602425Y469900D01*
D02*
G37*
G36*
X2540000D02*
X2502975D01*
X2509634Y453824D01*
X2523924Y439534D01*
X2540000Y432875D01*
Y469900D01*
D02*
G37*
G36*
X2323025D02*
X2286000D01*
Y432875D01*
X2302076Y439534D01*
X2316366Y453824D01*
X2323025Y469900D01*
D02*
G37*
G36*
X2260600D02*
X2223575D01*
X2230234Y453824D01*
X2244524Y439534D01*
X2260600Y432875D01*
Y469900D01*
D02*
G37*
G36*
X984959Y965761D02*
X965761D01*
X948023Y958413D01*
X934447Y944838D01*
X927100Y927100D01*
Y918679D01*
X899631Y891211D01*
X891211Y878608D01*
X888253Y863742D01*
Y499303D01*
X886187Y497237D01*
X878840Y479499D01*
Y460301D01*
X886187Y442563D01*
X899763Y428987D01*
X917501Y421640D01*
X936699D01*
X954437Y428987D01*
X968013Y442563D01*
X975360Y460301D01*
Y479499D01*
X968013Y497237D01*
X965947Y499303D01*
Y847651D01*
X989358Y871063D01*
X1002697Y876588D01*
X1016273Y890164D01*
X1023620Y907901D01*
Y927100D01*
X1016273Y944838D01*
X1002697Y958413D01*
X984959Y965761D01*
D02*
G37*
G36*
X1471050Y457200D02*
X1434025D01*
Y420175D01*
X1450101Y426834D01*
X1464391Y441124D01*
X1471050Y457200D01*
D02*
G37*
G36*
X1408625D02*
X1371600D01*
X1378259Y441124D01*
X1392549Y426834D01*
X1408625Y420175D01*
Y457200D01*
D02*
G37*
G36*
X4648200Y456125D02*
Y419100D01*
X4685225D01*
X4678566Y435176D01*
X4664276Y449466D01*
X4648200Y456125D01*
D02*
G37*
G36*
X4622800D02*
X4606724Y449466D01*
X4592434Y435176D01*
X4585775Y419100D01*
X4622800D01*
Y456125D01*
D02*
G37*
G36*
X1688025Y431800D02*
X1651000D01*
Y394775D01*
X1667076Y401434D01*
X1681366Y415724D01*
X1688025Y431800D01*
D02*
G37*
G36*
X1625600D02*
X1588575D01*
X1595234Y415724D01*
X1609524Y401434D01*
X1625600Y394775D01*
Y431800D01*
D02*
G37*
G36*
X2425700Y405325D02*
Y368300D01*
X2462725D01*
X2456066Y384376D01*
X2441776Y398666D01*
X2425700Y405325D01*
D02*
G37*
G36*
X2400300D02*
X2384224Y398666D01*
X2369934Y384376D01*
X2363275Y368300D01*
X2400300D01*
Y405325D01*
D02*
G37*
G36*
X4685225Y393700D02*
X4648200D01*
Y356675D01*
X4664276Y363334D01*
X4678566Y377624D01*
X4685225Y393700D01*
D02*
G37*
G36*
X4622800D02*
X4585775D01*
X4592434Y377624D01*
X4606724Y363334D01*
X4622800Y356675D01*
Y393700D01*
D02*
G37*
G36*
X2462725Y342900D02*
X2425700D01*
Y305875D01*
X2441776Y312534D01*
X2456066Y326824D01*
X2462725Y342900D01*
D02*
G37*
G36*
X2400300D02*
X2363275D01*
X2369934Y326824D01*
X2384224Y312534D01*
X2400300Y305875D01*
Y342900D01*
D02*
G37*
G36*
X4648200Y341825D02*
Y304800D01*
X4685225D01*
X4678566Y320876D01*
X4664276Y335166D01*
X4648200Y341825D01*
D02*
G37*
G36*
X4622800D02*
X4606724Y335166D01*
X4592434Y320876D01*
X4585775Y304800D01*
X4622800D01*
Y341825D01*
D02*
G37*
G36*
X585100Y425678D02*
X475100D01*
X450635Y420812D01*
X429896Y406954D01*
X416038Y386214D01*
X411171Y361750D01*
X416038Y337286D01*
X429896Y316546D01*
X450635Y302688D01*
X475100Y297822D01*
X585100D01*
X609564Y302688D01*
X630304Y316546D01*
X644162Y337286D01*
X649028Y361750D01*
X644162Y386214D01*
X630304Y406954D01*
X609564Y420812D01*
X585100Y425678D01*
D02*
G37*
G36*
X2286000Y315350D02*
Y278325D01*
X2323025D01*
X2316366Y294401D01*
X2302076Y308691D01*
X2286000Y315350D01*
D02*
G37*
G36*
X2260600D02*
X2244524Y308691D01*
X2230234Y294401D01*
X2223575Y278325D01*
X2260600D01*
Y315350D01*
D02*
G37*
G36*
X1546299Y988060D02*
X1527101D01*
X1509363Y980713D01*
X1495787Y967137D01*
X1488440Y949399D01*
Y936960D01*
X1488111Y936467D01*
X1485153Y921601D01*
Y334203D01*
X1483087Y332137D01*
X1475740Y314399D01*
Y295201D01*
X1483087Y277463D01*
X1496663Y263887D01*
X1514401Y256540D01*
X1533599D01*
X1551337Y263887D01*
X1564913Y277463D01*
X1572260Y295201D01*
Y314399D01*
X1564913Y332137D01*
X1562847Y334203D01*
Y898394D01*
X1564037Y898887D01*
X1577613Y912463D01*
X1584960Y930201D01*
Y949399D01*
X1577613Y967137D01*
X1564037Y980713D01*
X1546299Y988060D01*
D02*
G37*
G36*
X4685225Y279400D02*
X4648200D01*
Y242375D01*
X4664276Y249034D01*
X4678566Y263324D01*
X4685225Y279400D01*
D02*
G37*
G36*
X4622800D02*
X4585775D01*
X4592434Y263324D01*
X4606724Y249034D01*
X4622800Y242375D01*
Y279400D01*
D02*
G37*
G36*
X2323025Y252925D02*
X2286000D01*
Y215900D01*
X2302076Y222559D01*
X2316366Y236849D01*
X2323025Y252925D01*
D02*
G37*
G36*
X2260600D02*
X2223575D01*
X2230234Y236849D01*
X2244524Y222559D01*
X2260600Y215900D01*
Y252925D01*
D02*
G37*
G36*
X4978400Y190500D02*
X4977724D01*
X4951884Y183576D01*
X4928716Y170200D01*
X4909800Y151284D01*
X4896424Y128116D01*
X4889500Y102276D01*
Y101600D01*
X4978400D01*
Y190500D01*
D02*
G37*
G36*
X102276D02*
X101600D01*
Y101600D01*
X190500D01*
Y102276D01*
X183576Y128116D01*
X170200Y151284D01*
X151284Y170200D01*
X128116Y183576D01*
X102276Y190500D01*
D02*
G37*
G36*
X3065322Y345596D02*
X3050165D01*
X3036162Y339796D01*
X3025444Y329078D01*
X3019644Y315075D01*
Y299917D01*
X3025444Y285914D01*
X3036162Y275196D01*
X3050165Y269396D01*
X3065322D01*
X3079326Y275196D01*
X3090043Y285914D01*
X3093472Y294192D01*
X4359146D01*
X4559300Y94038D01*
Y81321D01*
X4565100Y67318D01*
X4575818Y56600D01*
X4589821Y50800D01*
X4604979D01*
X4618982Y56600D01*
X4629700Y67318D01*
X4635500Y81321D01*
Y96479D01*
X4629700Y110482D01*
X4618982Y121200D01*
X4604979Y127000D01*
X4592262D01*
X4385281Y333981D01*
X4377719Y339034D01*
X4368800Y340808D01*
X3076882D01*
X3065322Y345596D01*
D02*
G37*
%LPD*%
D39*
X975360Y912002D02*
Y917501D01*
X927100Y469900D02*
Y863742D01*
X1524000Y921601D02*
X1536700Y934301D01*
X1524000Y304800D02*
Y921601D01*
X1536700Y934301D02*
Y939800D01*
X927100Y863742D02*
X975360Y912002D01*
X3187700Y838200D02*
Y1041400D01*
D40*
X3416300Y889000D02*
X3695700D01*
X4368800Y317500D02*
X4597400Y88900D01*
X3067748Y317500D02*
X4368800D01*
X3057744Y307496D02*
X3067748Y317500D01*
X1231900Y406400D02*
X1485900Y152400D01*
X2471978D02*
X2929178Y609600D01*
X1485900Y152400D02*
X2471978D01*
X1168400Y279400D02*
X1397000Y50800D01*
X2575935D01*
X3033135Y508000D01*
X3886200D01*
X1104900Y406400D02*
X1231900D01*
X977900Y279400D02*
X1104900Y406400D01*
X2929178Y609600D02*
X3886200D01*
X3505200Y1155700D02*
X3619500Y1041400D01*
X3505200Y1155700D02*
Y1498600D01*
X3314700Y1231900D02*
Y1498600D01*
Y1231900D02*
X3568700Y977900D01*
X3695700D01*
X3289300Y1016000D02*
X3416300Y889000D01*
D43*
X112100Y1225750D02*
D03*
Y361750D02*
D03*
D44*
X530100Y1225750D02*
D03*
Y361750D02*
D03*
D45*
X480100Y1082750D02*
D03*
Y504750D02*
D03*
D46*
X736600Y88900D02*
D03*
X977900D02*
D03*
X3860800D02*
D03*
X3670300D02*
D03*
X3479800D02*
D03*
X3289300D02*
D03*
X3098800D02*
D03*
X3886200Y1498600D02*
D03*
X1168400Y279400D02*
D03*
X977900D02*
D03*
X1168400Y88900D02*
D03*
X3695700Y1498600D02*
D03*
X3505200D02*
D03*
X3314700D02*
D03*
X4991100Y88900D02*
D03*
X88900Y1498600D02*
D03*
Y88900D02*
D03*
X4991100Y1498600D02*
D03*
D47*
X3365500Y1054100D02*
D03*
X2921000Y1511300D02*
D03*
X3695700Y889000D02*
D03*
X2260600Y927100D02*
D03*
X1193800Y546100D02*
D03*
X2679700Y1473200D02*
D03*
X1676400Y1295400D02*
D03*
X4597400Y88900D02*
D03*
X203200Y635000D02*
D03*
Y825500D02*
D03*
Y1016000D02*
D03*
X2273300Y265625D02*
D03*
X2413000Y355600D02*
D03*
X2552700Y482600D02*
D03*
X2273300D02*
D03*
X812800Y1510225D02*
D03*
X2413000Y1092200D02*
D03*
X1638300Y444500D02*
D03*
Y622300D02*
D03*
X1421325Y469900D02*
D03*
Y622300D02*
D03*
X4635500Y520700D02*
D03*
Y406400D02*
D03*
Y292100D02*
D03*
Y1041400D02*
D03*
Y1155700D02*
D03*
Y1270000D02*
D03*
X3886200Y508000D02*
D03*
Y609600D02*
D03*
X3695700Y977900D02*
D03*
X3619500Y1041400D02*
D03*
X3187700Y838200D02*
D03*
Y1041400D02*
D03*
X3289300Y1016000D02*
D03*
X3057744Y307496D02*
D03*
D48*
X975360Y917501D02*
D03*
X927100Y469900D02*
D03*
X1536700Y939800D02*
D03*
X1524000Y304800D02*
D03*
%TF.MD5,af26bafa6ea382ce3cb9c4a44ab6e9c9*%
M02*
