%TF.GenerationSoftware,Altium Limited,Altium Designer,23.10.1 (27)*%
G04 Layer_Color=8388736*
%FSLAX45Y45*%
%MOMM*%
%TF.SameCoordinates,D187A3F4-093A-4DDC-863C-0592D449728B*%
%TF.FilePolarity,Negative*%
%TF.FileFunction,Soldermask,Top*%
%TF.Part,Single*%
G01*
G75*
%TA.AperFunction,SMDPad,CuDef*%
%ADD10R,0.47500X0.50000*%
%TA.AperFunction,ConnectorPad*%
%ADD11R,1.15000X0.30000*%
%ADD12R,1.15000X0.60000*%
%TA.AperFunction,SMDPad,CuDef*%
%ADD13R,0.60000X0.55000*%
%ADD15R,1.35443X1.45620*%
%TA.AperFunction,ConnectorPad*%
%ADD16R,0.47247X0.51535*%
%TA.AperFunction,SMDPad,CuDef*%
%ADD17R,0.47247X0.46818*%
%ADD18R,0.46818X0.47247*%
G04:AMPARAMS|DCode=19|XSize=1.55439mm|YSize=0.57213mm|CornerRadius=0.28606mm|HoleSize=0mm|Usage=FLASHONLY|Rotation=0.000|XOffset=0mm|YOffset=0mm|HoleType=Round|Shape=RoundedRectangle|*
%AMROUNDEDRECTD19*
21,1,1.55439,0.00000,0,0,0.0*
21,1,0.98226,0.57213,0,0,0.0*
1,1,0.57213,0.49113,0.00000*
1,1,0.57213,-0.49113,0.00000*
1,1,0.57213,-0.49113,0.00000*
1,1,0.57213,0.49113,0.00000*
%
%ADD19ROUNDEDRECTD19*%
%ADD20R,1.55439X0.57213*%
%ADD21R,0.50000X0.60000*%
%ADD23R,0.66817X0.67248*%
%ADD30R,0.60000X0.45000*%
%ADD36R,0.50000X0.40000*%
%TA.AperFunction,ComponentPad*%
G04:AMPARAMS|DCode=43|XSize=1mm|YSize=1.8mm|CornerRadius=0.5mm|HoleSize=0mm|Usage=FLASHONLY|Rotation=270.000|XOffset=0mm|YOffset=0mm|HoleType=Round|Shape=RoundedRectangle|*
%AMROUNDEDRECTD43*
21,1,1.00000,0.80000,0,0,270.0*
21,1,0.00000,1.80000,0,0,270.0*
1,1,1.00000,-0.40000,0.00000*
1,1,1.00000,-0.40000,0.00000*
1,1,1.00000,0.40000,0.00000*
1,1,1.00000,0.40000,0.00000*
%
%ADD43ROUNDEDRECTD43*%
G04:AMPARAMS|DCode=44|XSize=1mm|YSize=2.1mm|CornerRadius=0.5mm|HoleSize=0mm|Usage=FLASHONLY|Rotation=270.000|XOffset=0mm|YOffset=0mm|HoleType=Round|Shape=RoundedRectangle|*
%AMROUNDEDRECTD44*
21,1,1.00000,1.10000,0,0,270.0*
21,1,0.00000,2.10000,0,0,270.0*
1,1,1.00000,-0.55000,0.00000*
1,1,1.00000,-0.55000,0.00000*
1,1,1.00000,0.55000,0.00000*
1,1,1.00000,0.55000,0.00000*
%
%ADD44ROUNDEDRECTD44*%
%ADD45C,0.65000*%
%TA.AperFunction,ViaPad*%
%ADD48C,0.71120*%
%TA.AperFunction,ConnectorPad*%
%ADD53R,0.74320X0.78320*%
%TA.AperFunction,SMDPad,CuDef*%
%ADD54R,0.75320X0.75320*%
%ADD55R,0.75320X0.75320*%
%ADD56R,0.74320X0.78320*%
G04:AMPARAMS|DCode=57|XSize=0.4032mm|YSize=1.0432mm|CornerRadius=0.1266mm|HoleSize=0mm|Usage=FLASHONLY|Rotation=90.000|XOffset=0mm|YOffset=0mm|HoleType=Round|Shape=RoundedRectangle|*
%AMROUNDEDRECTD57*
21,1,0.40320,0.79000,0,0,90.0*
21,1,0.15000,1.04320,0,0,90.0*
1,1,0.25320,0.39500,0.07500*
1,1,0.25320,0.39500,-0.07500*
1,1,0.25320,-0.39500,-0.07500*
1,1,0.25320,-0.39500,0.07500*
%
%ADD57ROUNDEDRECTD57*%
G04:AMPARAMS|DCode=58|XSize=1.0432mm|YSize=0.4032mm|CornerRadius=0.1266mm|HoleSize=0mm|Usage=FLASHONLY|Rotation=90.000|XOffset=0mm|YOffset=0mm|HoleType=Round|Shape=RoundedRectangle|*
%AMROUNDEDRECTD58*
21,1,1.04320,0.15000,0,0,90.0*
21,1,0.79000,0.40320,0,0,90.0*
1,1,0.25320,0.07500,0.39500*
1,1,0.25320,0.07500,-0.39500*
1,1,0.25320,-0.07500,-0.39500*
1,1,0.25320,-0.07500,0.39500*
%
%ADD58ROUNDEDRECTD58*%
%ADD59R,3.30320X3.30320*%
%TA.AperFunction,ConnectorPad*%
G04:AMPARAMS|DCode=60|XSize=1.8132mm|YSize=0.7832mm|CornerRadius=0.1741mm|HoleSize=0mm|Usage=FLASHONLY|Rotation=180.000|XOffset=0mm|YOffset=0mm|HoleType=Round|Shape=RoundedRectangle|*
%AMROUNDEDRECTD60*
21,1,1.81320,0.43500,0,0,180.0*
21,1,1.46500,0.78320,0,0,180.0*
1,1,0.34820,-0.73250,0.21750*
1,1,0.34820,0.73250,0.21750*
1,1,0.34820,0.73250,-0.21750*
1,1,0.34820,-0.73250,-0.21750*
%
%ADD60ROUNDEDRECTD60*%
%TA.AperFunction,SMDPad,CuDef*%
%ADD61R,0.65320X0.65320*%
%ADD62R,0.78320X0.74320*%
%TA.AperFunction,ConnectorPad*%
%ADD63R,2.30320X5.80320*%
%TA.AperFunction,SMDPad,CuDef*%
%ADD64R,0.76320X0.72320*%
%ADD65R,0.72320X0.76320*%
%TA.AperFunction,ConnectorPad*%
%ADD66R,1.80320X2.40320*%
%ADD67R,1.80320X2.38320*%
%TA.AperFunction,ViaPad*%
%ADD68C,1.72720*%
%ADD69C,0.91440*%
D10*
X1231445Y927100D02*
D03*
X1333955D02*
D03*
D11*
X587600Y968750D02*
D03*
Y918750D02*
D03*
Y868750D02*
D03*
Y818750D02*
D03*
Y768750D02*
D03*
Y718750D02*
D03*
Y668750D02*
D03*
Y618750D02*
D03*
D12*
Y1033750D02*
D03*
Y553750D02*
D03*
Y1113750D02*
D03*
Y473750D02*
D03*
D13*
X787400Y880700D02*
D03*
Y795700D02*
D03*
Y690200D02*
D03*
Y605200D02*
D03*
X749300Y1164000D02*
D03*
Y1249000D02*
D03*
D15*
X2020689Y1346200D02*
D03*
X1865512D02*
D03*
D16*
X2260600Y1447556D02*
D03*
Y1371844D02*
D03*
X2451100Y1447556D02*
D03*
Y1371844D02*
D03*
D17*
X1905000Y1064685D02*
D03*
Y1145115D02*
D03*
D18*
X1310215Y1092200D02*
D03*
X1229785D02*
D03*
D19*
X1481629Y1466600D02*
D03*
Y1371600D02*
D03*
Y1276600D02*
D03*
X1261571D02*
D03*
Y1371600D02*
D03*
D20*
Y1466600D02*
D03*
D21*
X1740700Y1049900D02*
D03*
Y1159900D02*
D03*
D23*
X380415Y1460500D02*
D03*
X279985D02*
D03*
X380415Y139700D02*
D03*
X279985D02*
D03*
D30*
X927100Y1155662D02*
D03*
Y1250662D02*
D03*
D36*
X2921000Y1373500D02*
D03*
Y1293500D02*
D03*
X2819400Y1170300D02*
D03*
Y1090300D02*
D03*
D43*
X112100Y1225750D02*
D03*
Y361750D02*
D03*
D44*
X530100Y1225750D02*
D03*
Y361750D02*
D03*
D45*
X480100Y1082750D02*
D03*
Y504750D02*
D03*
D48*
X3365500Y1054100D02*
D03*
X2921000Y1511300D02*
D03*
X3695700Y889000D02*
D03*
X2260600Y927100D02*
D03*
X1193800Y546100D02*
D03*
X2679700Y1473200D02*
D03*
X1676400Y1295400D02*
D03*
X4597400Y88900D02*
D03*
X203200Y635000D02*
D03*
Y825500D02*
D03*
Y1016000D02*
D03*
X2273300Y265625D02*
D03*
X2413000Y355600D02*
D03*
X2552700Y482600D02*
D03*
X2273300D02*
D03*
X812800Y1510225D02*
D03*
X2413000Y1092200D02*
D03*
X1638300Y444500D02*
D03*
Y622300D02*
D03*
X1421325Y469900D02*
D03*
Y622300D02*
D03*
X4635500Y520700D02*
D03*
Y406400D02*
D03*
Y292100D02*
D03*
Y1041400D02*
D03*
Y1155700D02*
D03*
Y1270000D02*
D03*
X3886200Y508000D02*
D03*
Y609600D02*
D03*
X3695700Y977900D02*
D03*
X3619500Y1041400D02*
D03*
X3187700Y838200D02*
D03*
Y1041400D02*
D03*
X3289300Y1016000D02*
D03*
X3057744Y307496D02*
D03*
D53*
X1701800Y1408800D02*
D03*
Y1486800D02*
D03*
X1790700Y127900D02*
D03*
Y49900D02*
D03*
D54*
X3987800Y1250400D02*
D03*
Y1340400D02*
D03*
D55*
X4782100Y88900D02*
D03*
X4692100D02*
D03*
D56*
X3162300Y240400D02*
D03*
Y318400D02*
D03*
X3911600Y1040500D02*
D03*
Y1118500D02*
D03*
X2679700Y1091300D02*
D03*
Y1169300D02*
D03*
X3911600Y837300D02*
D03*
Y915300D02*
D03*
X3071800Y1290500D02*
D03*
Y1368500D02*
D03*
X3175000Y1294500D02*
D03*
Y1372500D02*
D03*
D57*
X3785200Y533750D02*
D03*
Y573750D02*
D03*
Y613750D02*
D03*
Y653750D02*
D03*
Y693750D02*
D03*
Y733750D02*
D03*
Y773750D02*
D03*
Y813750D02*
D03*
Y853750D02*
D03*
Y893750D02*
D03*
Y933750D02*
D03*
Y973750D02*
D03*
Y1013750D02*
D03*
Y1053750D02*
D03*
X3098200D02*
D03*
Y1013750D02*
D03*
Y973750D02*
D03*
Y933750D02*
D03*
Y893750D02*
D03*
Y853750D02*
D03*
Y813750D02*
D03*
Y773750D02*
D03*
Y733750D02*
D03*
Y693750D02*
D03*
Y653750D02*
D03*
Y613750D02*
D03*
Y573750D02*
D03*
Y533750D02*
D03*
D58*
X3181700Y450250D02*
D03*
X3221700D02*
D03*
X3261700D02*
D03*
X3301700D02*
D03*
X3341700D02*
D03*
X3381700D02*
D03*
X3421700D02*
D03*
X3461700D02*
D03*
X3501700D02*
D03*
X3541700D02*
D03*
X3581700D02*
D03*
X3621700D02*
D03*
X3661700D02*
D03*
X3701700D02*
D03*
Y1137250D02*
D03*
X3661700D02*
D03*
X3621700D02*
D03*
X3581700D02*
D03*
X3541700D02*
D03*
X3501700D02*
D03*
X3461700D02*
D03*
X3421700D02*
D03*
X3381700D02*
D03*
X3341700D02*
D03*
X3301700D02*
D03*
X3261700D02*
D03*
X3221700D02*
D03*
X3181700D02*
D03*
D59*
X3441700Y793750D02*
D03*
D60*
X2786200Y504972D02*
D03*
Y123972D02*
D03*
Y250972D02*
D03*
Y377972D02*
D03*
X2065200Y504972D02*
D03*
Y377972D02*
D03*
Y250972D02*
D03*
Y123972D02*
D03*
D61*
X2652400Y977900D02*
D03*
X2732400D02*
D03*
X2652400Y889000D02*
D03*
X2732400D02*
D03*
D62*
X2972700Y825500D02*
D03*
X2894700D02*
D03*
X2731400Y787400D02*
D03*
X2653400D02*
D03*
X3633100Y1295400D02*
D03*
X3555100D02*
D03*
X3605900Y317500D02*
D03*
X3683900D02*
D03*
D63*
X4318000Y1268750D02*
D03*
Y318750D02*
D03*
D64*
X4621900Y1447800D02*
D03*
X4699900D02*
D03*
D65*
X4013200Y443600D02*
D03*
Y521600D02*
D03*
D66*
X4889500Y334250D02*
D03*
D67*
Y1253250D02*
D03*
D68*
X736600Y88900D02*
D03*
X977900D02*
D03*
X3860800D02*
D03*
X3670300D02*
D03*
X3479800D02*
D03*
X3289300D02*
D03*
X3098800D02*
D03*
X3886200Y1498600D02*
D03*
X1168400Y279400D02*
D03*
X977900D02*
D03*
X1168400Y88900D02*
D03*
X3695700Y1498600D02*
D03*
X3505200D02*
D03*
X3314700D02*
D03*
X4991100Y88900D02*
D03*
X88900Y1498600D02*
D03*
Y88900D02*
D03*
X4991100Y1498600D02*
D03*
D69*
X975360Y917501D02*
D03*
X927100Y469900D02*
D03*
X1536700Y939800D02*
D03*
X1524000Y304800D02*
D03*
%TF.MD5,a8fc3db82c494e5bbef60601ea77fd95*%
M02*
