%TF.GenerationSoftware,Altium Limited,Altium Designer,23.10.1 (27)*%
G04 Layer_Color=65535*
%FSLAX45Y45*%
%MOMM*%
%TF.SameCoordinates,D187A3F4-093A-4DDC-863C-0592D449728B*%
%TF.FilePolarity,Positive*%
%TF.FileFunction,Legend,Top*%
%TF.Part,Single*%
G01*
G75*
%TA.AperFunction,NonConductor*%
%ADD49C,0.25000*%
%ADD50C,0.20000*%
%ADD51C,0.12700*%
%ADD52C,0.25400*%
D49*
X712600Y1120250D02*
G03*
X712600Y1120250I-12500J0D01*
G01*
X1139100Y1466600D02*
G03*
X1139100Y1466600I-12500J0D01*
G01*
X4902000Y169250D02*
G03*
X4902000Y169250I-12500J0D01*
G01*
D50*
X3191700Y346250D02*
G03*
X3191700Y346250I-10000J0D01*
G01*
X2957200Y123972D02*
G03*
X2957200Y123972I-10000J0D01*
G01*
X1230200Y989600D02*
X1335200D01*
X1230200Y864600D02*
X1335200D01*
X-155400Y307250D02*
X-15400D01*
X239600D02*
X387600D01*
X-155400D02*
Y1280250D01*
X-15400D01*
X239600D02*
X387600D01*
X854900Y783200D02*
Y893200D01*
X719900Y783200D02*
Y893200D01*
X787400Y945700D02*
Y975700D01*
X772400Y960700D02*
X802400D01*
X772400Y525200D02*
X802400D01*
X787400Y510200D02*
Y540200D01*
X854900Y592700D02*
Y702700D01*
X719900Y592700D02*
Y702700D01*
X1797790Y1459010D02*
X2088410D01*
X1797790Y1233390D02*
X2088410D01*
X2193100Y1346076D02*
Y1473324D01*
X2328100Y1346076D02*
Y1473324D01*
X1972500Y1041276D02*
Y1168524D01*
X1837500Y1041276D02*
Y1168524D01*
X1206376Y1159700D02*
X1333624D01*
X1206376Y1024700D02*
X1333624D01*
X1231600Y1541600D02*
X1511600D01*
X1231600Y1201600D02*
X1511600D01*
X2383600Y1346076D02*
Y1473324D01*
X2518600Y1346076D02*
Y1473324D01*
X1670700Y1049900D02*
Y1159900D01*
X1810700Y1049900D02*
Y1159900D01*
X246576Y1534124D02*
X413824D01*
X246576Y1386876D02*
X413824D01*
X246576Y213324D02*
X413824D01*
X246576Y66076D02*
X413824D01*
X734300Y1329000D02*
X764300D01*
X749300Y1314000D02*
Y1344000D01*
X681800Y1151500D02*
Y1261500D01*
X816800Y1151500D02*
Y1261500D01*
X857100Y1143163D02*
Y1263162D01*
X999100Y1143696D02*
Y1263696D01*
X2983500Y1278500D02*
Y1388500D01*
X2858500Y1278500D02*
Y1388500D01*
X2881900Y1075300D02*
Y1185300D01*
X2756900Y1075300D02*
Y1185300D01*
X5064500Y493750D02*
Y1093750D01*
X4714500D02*
X5064500D01*
X4714500Y493750D02*
X5064500D01*
X4714500D02*
Y1093750D01*
D51*
X3791700Y1095750D02*
Y1143750D01*
X3091700Y1095750D02*
Y1143750D01*
X3791700Y443750D02*
Y491750D01*
X3091700Y443750D02*
Y491750D01*
X3743700Y1143750D02*
X3791700D01*
X3091700D02*
X3139700D01*
X3743700Y443750D02*
X3791700D01*
X3091700D02*
X3139700D01*
X4553000Y223750D02*
Y1363750D01*
X4083000Y223750D02*
Y1363750D01*
X2161700Y50472D02*
X2689700D01*
X2161700Y578472D02*
X2689700D01*
X1377981Y812812D02*
Y888988D01*
X1416069D01*
X1428764Y876292D01*
Y850900D01*
X1416069Y838204D01*
X1377981D01*
X1403373D02*
X1428764Y812812D01*
X1454156D02*
X1479548D01*
X1466852D01*
Y888988D01*
X1454156Y876292D01*
X1517636D02*
X1530332Y888988D01*
X1555724D01*
X1568419Y876292D01*
Y825508D01*
X1555724Y812812D01*
X1530332D01*
X1517636Y825508D01*
Y876292D01*
X3848117Y1244612D02*
Y1320788D01*
X3886204D01*
X3898900Y1308092D01*
Y1282700D01*
X3886204Y1270004D01*
X3848117D01*
X3873508D02*
X3898900Y1244612D01*
X3924292D02*
X3949684D01*
X3936988D01*
Y1320788D01*
X3924292Y1308092D01*
X889021Y863588D02*
Y787412D01*
X927108D01*
X939804Y800108D01*
Y850892D01*
X927108Y863588D01*
X889021D01*
X965196Y850892D02*
X977892Y863588D01*
X1003284D01*
X1015979Y850892D01*
Y838196D01*
X1003284Y825500D01*
X990588D01*
X1003284D01*
X1015979Y812804D01*
Y800108D01*
X1003284Y787412D01*
X977892D01*
X965196Y800108D01*
X889021Y685788D02*
Y609612D01*
X927108D01*
X939804Y622308D01*
Y673092D01*
X927108Y685788D01*
X889021D01*
X1015979Y609612D02*
X965196D01*
X1015979Y660396D01*
Y673092D01*
X1003284Y685788D01*
X977892D01*
X965196Y673092D01*
X3403600Y258293D02*
Y182118D01*
X3441688D01*
X3454383Y194814D01*
Y245597D01*
X3441688Y258293D01*
X3403600D01*
X3530559Y182118D02*
X3479775D01*
X3530559Y232901D01*
Y245597D01*
X3517863Y258293D01*
X3492471D01*
X3479775Y245597D01*
X3218140Y182840D02*
Y259015D01*
X3256228D01*
X3268924Y246320D01*
Y220928D01*
X3256228Y208232D01*
X3218140D01*
X3243532D02*
X3268924Y182840D01*
X3294315Y259015D02*
X3345099Y182840D01*
Y259015D02*
X3294315Y182840D01*
X2984500Y259055D02*
X3035283D01*
X3009892D01*
Y182880D01*
X3060675Y259055D02*
X3111459Y182880D01*
Y259055D02*
X3060675Y182880D01*
X3585707Y258257D02*
Y182081D01*
X3623795D01*
X3636491Y194777D01*
Y245561D01*
X3623795Y258257D01*
X3585707D01*
X3661883Y245561D02*
X3674579Y258257D01*
X3699971D01*
X3712666Y245561D01*
Y232865D01*
X3699971Y220169D01*
X3687275D01*
X3699971D01*
X3712666Y207473D01*
Y194777D01*
X3699971Y182081D01*
X3674579D01*
X3661883Y194777D01*
X3793446Y257830D02*
Y181654D01*
X3831534D01*
X3844229Y194350D01*
Y245134D01*
X3831534Y257830D01*
X3793446D01*
X3907709Y181654D02*
Y257830D01*
X3869621Y219742D01*
X3920405D01*
X3517883Y1396979D02*
X3505188Y1409675D01*
X3479796D01*
X3467100Y1396979D01*
Y1346196D01*
X3479796Y1333500D01*
X3505188D01*
X3517883Y1346196D01*
X3594059Y1396979D02*
X3581363Y1409675D01*
X3555971D01*
X3543275Y1396979D01*
Y1384283D01*
X3555971Y1371588D01*
X3581363D01*
X3594059Y1358892D01*
Y1346196D01*
X3581363Y1333500D01*
X3555971D01*
X3543275Y1346196D01*
X3688680Y1396979D02*
X3675984Y1409675D01*
X3650592D01*
X3637896Y1396979D01*
Y1384283D01*
X3650592Y1371588D01*
X3675984D01*
X3688680Y1358892D01*
Y1346196D01*
X3675984Y1333500D01*
X3650592D01*
X3637896Y1346196D01*
X3714072Y1409675D02*
Y1333500D01*
X3752159D01*
X3764855Y1346196D01*
Y1396979D01*
X3752159Y1409675D01*
X3714072D01*
X3828335D02*
X3802943D01*
X3790247Y1396979D01*
Y1346196D01*
X3802943Y1333500D01*
X3828335D01*
X3841030Y1346196D01*
Y1396979D01*
X3828335Y1409675D01*
X3278484Y1395901D02*
X3265788Y1408597D01*
X3240396D01*
X3227700Y1395901D01*
Y1383206D01*
X3240396Y1370510D01*
X3265788D01*
X3278484Y1357814D01*
Y1345118D01*
X3265788Y1332422D01*
X3240396D01*
X3227700Y1345118D01*
X3303876Y1408597D02*
Y1332422D01*
X3341963D01*
X3354659Y1345118D01*
Y1395901D01*
X3341963Y1408597D01*
X3303876D01*
X3380051D02*
X3405443D01*
X3392747D01*
Y1332422D01*
X3380051D01*
X3405443D01*
X4038583Y1536679D02*
X4025888Y1549375D01*
X4000496D01*
X3987800Y1536679D01*
Y1523983D01*
X4000496Y1511288D01*
X4025888D01*
X4038583Y1498592D01*
Y1485896D01*
X4025888Y1473200D01*
X4000496D01*
X3987800Y1485896D01*
X4114759Y1536679D02*
X4102063Y1549375D01*
X4076671D01*
X4063975Y1536679D01*
Y1485896D01*
X4076671Y1473200D01*
X4102063D01*
X4114759Y1485896D01*
X4140151Y1549375D02*
Y1473200D01*
Y1498592D01*
X4190934Y1549375D01*
X4152847Y1511288D01*
X4190934Y1473200D01*
X559537Y88874D02*
X508753D01*
Y50787D01*
X534145Y63482D01*
X546841D01*
X559537Y50787D01*
Y25395D01*
X546841Y12699D01*
X521449D01*
X508753Y25395D01*
X584929Y88874D02*
Y38091D01*
X610321Y12699D01*
X635712Y38091D01*
Y88874D01*
X1263892Y76178D02*
X1276588Y88874D01*
X1301980D01*
X1314676Y76178D01*
Y63482D01*
X1301980Y50787D01*
X1289284D01*
X1301980D01*
X1314676Y38091D01*
Y25395D01*
X1301980Y12699D01*
X1276588D01*
X1263892Y25395D01*
X1340068Y88874D02*
Y38091D01*
X1365460Y12699D01*
X1390851Y38091D01*
Y88874D01*
X1416243Y76178D02*
X1428939Y88874D01*
X1454331D01*
X1467027Y76178D01*
Y63482D01*
X1454331Y50787D01*
X1441635D01*
X1454331D01*
X1467027Y38091D01*
Y25395D01*
X1454331Y12699D01*
X1428939D01*
X1416243Y25395D01*
X1155683Y444479D02*
X1142988Y457175D01*
X1117596D01*
X1104900Y444479D01*
Y431783D01*
X1117596Y419088D01*
X1142988D01*
X1155683Y406392D01*
Y393696D01*
X1142988Y381000D01*
X1117596D01*
X1104900Y393696D01*
X1181075Y457175D02*
Y381000D01*
X1219163D01*
X1231859Y393696D01*
Y444479D01*
X1219163Y457175D01*
X1181075D01*
X1257251Y381000D02*
Y431783D01*
X1282643Y457175D01*
X1308034Y431783D01*
Y381000D01*
Y419088D01*
X1257251D01*
X901683Y444479D02*
X888988Y457175D01*
X863596D01*
X850900Y444479D01*
Y431783D01*
X863596Y419088D01*
X888988D01*
X901683Y406392D01*
Y393696D01*
X888988Y381000D01*
X863596D01*
X850900Y393696D01*
X977859Y444479D02*
X965163Y457175D01*
X939771D01*
X927075Y444479D01*
Y393696D01*
X939771Y381000D01*
X965163D01*
X977859Y393696D01*
X1003251Y457175D02*
Y381000D01*
X1054034D01*
X2133617Y1308088D02*
Y1231912D01*
X2184400D01*
X2209792D02*
X2235184D01*
X2222488D01*
Y1308088D01*
X2209792Y1295392D01*
X952521Y1549388D02*
Y1485908D01*
X965217Y1473212D01*
X990608D01*
X1003304Y1485908D01*
Y1549388D01*
X1079479Y1473212D02*
X1028696D01*
X1079479Y1523996D01*
Y1536692D01*
X1066784Y1549388D01*
X1041392D01*
X1028696Y1536692D01*
X1993921Y1079512D02*
Y1155688D01*
X2032008D01*
X2044704Y1142992D01*
Y1117600D01*
X2032008Y1104904D01*
X1993921D01*
X2019312D02*
X2044704Y1079512D01*
X2070096Y1092208D02*
X2082792Y1079512D01*
X2108184D01*
X2120879Y1092208D01*
Y1142992D01*
X2108184Y1155688D01*
X2082792D01*
X2070096Y1142992D01*
Y1130296D01*
X2082792Y1117600D01*
X2120879D01*
X1384321Y1041412D02*
Y1117588D01*
X1422408D01*
X1435104Y1104892D01*
Y1079500D01*
X1422408Y1066804D01*
X1384321D01*
X1409712D02*
X1435104Y1041412D01*
X1460496Y1104892D02*
X1473192Y1117588D01*
X1498584D01*
X1511279Y1104892D01*
Y1092196D01*
X1498584Y1079500D01*
X1511279Y1066804D01*
Y1054108D01*
X1498584Y1041412D01*
X1473192D01*
X1460496Y1054108D01*
Y1066804D01*
X1473192Y1079500D01*
X1460496Y1092196D01*
Y1104892D01*
X1473192Y1079500D02*
X1498584D01*
X88921Y177812D02*
Y253988D01*
X127008D01*
X139704Y241292D01*
Y215900D01*
X127008Y203204D01*
X88921D01*
X114312D02*
X139704Y177812D01*
X165096Y253988D02*
X215879D01*
Y241292D01*
X165096Y190508D01*
Y177812D01*
X76221Y1320812D02*
Y1396988D01*
X114308D01*
X127004Y1384292D01*
Y1358900D01*
X114308Y1346204D01*
X76221D01*
X101612D02*
X127004Y1320812D01*
X203179Y1396988D02*
X177788Y1384292D01*
X152396Y1358900D01*
Y1333508D01*
X165092Y1320812D01*
X190484D01*
X203179Y1333508D01*
Y1346204D01*
X190484Y1358900D01*
X152396D01*
X4658360Y200660D02*
Y276835D01*
X4696448D01*
X4709143Y264139D01*
Y238748D01*
X4696448Y226052D01*
X4658360D01*
X4683752D02*
X4709143Y200660D01*
X4785319Y276835D02*
X4734535D01*
Y238748D01*
X4759927Y251443D01*
X4772623D01*
X4785319Y238748D01*
Y213356D01*
X4772623Y200660D01*
X4747231D01*
X4734535Y213356D01*
X2413017Y1562092D02*
X2400321Y1574788D01*
X2374929D01*
X2362233Y1562092D01*
Y1511308D01*
X2374929Y1498612D01*
X2400321D01*
X2413017Y1511308D01*
X2489192Y1498612D02*
X2438408D01*
X2489192Y1549396D01*
Y1562092D01*
X2476496Y1574788D01*
X2451104D01*
X2438408Y1562092D01*
X2514584D02*
X2527280Y1574788D01*
X2552672D01*
X2565367Y1562092D01*
Y1511308D01*
X2552672Y1498612D01*
X2527280D01*
X2514584Y1511308D01*
Y1562092D01*
X2190764D02*
X2178069Y1574788D01*
X2152677D01*
X2139981Y1562092D01*
Y1511308D01*
X2152677Y1498612D01*
X2178069D01*
X2190764Y1511308D01*
X2216156Y1498612D02*
X2241548D01*
X2228852D01*
Y1574788D01*
X2216156Y1562092D01*
X2279636Y1511308D02*
X2292332Y1498612D01*
X2317724D01*
X2330419Y1511308D01*
Y1562092D01*
X2317724Y1574788D01*
X2292332D01*
X2279636Y1562092D01*
Y1549396D01*
X2292332Y1536700D01*
X2330419D01*
X1797064Y1562092D02*
X1784369Y1574788D01*
X1758977D01*
X1746281Y1562092D01*
Y1511308D01*
X1758977Y1498612D01*
X1784369D01*
X1797064Y1511308D01*
X1822456Y1498612D02*
X1847848D01*
X1835152D01*
Y1574788D01*
X1822456Y1562092D01*
X1885936D02*
X1898632Y1574788D01*
X1924024D01*
X1936719Y1562092D01*
Y1549396D01*
X1924024Y1536700D01*
X1936719Y1524004D01*
Y1511308D01*
X1924024Y1498612D01*
X1898632D01*
X1885936Y1511308D01*
Y1524004D01*
X1898632Y1536700D01*
X1885936Y1549396D01*
Y1562092D01*
X1898632Y1536700D02*
X1924024D01*
X1587504Y1054092D02*
X1574808Y1066788D01*
X1549417D01*
X1536721Y1054092D01*
Y1003308D01*
X1549417Y990612D01*
X1574808D01*
X1587504Y1003308D01*
X1650984Y990612D02*
Y1066788D01*
X1612896Y1028700D01*
X1663679D01*
X787417Y1396988D02*
Y1320812D01*
X825504D01*
X838200Y1333508D01*
Y1384292D01*
X825504Y1396988D01*
X787417D01*
X863592Y1320812D02*
X888984D01*
X876288D01*
Y1396988D01*
X863592Y1384292D01*
X2474532Y836224D02*
Y912399D01*
X2512620D01*
X2525315Y899703D01*
Y874311D01*
X2512620Y861615D01*
X2474532D01*
X2499924D02*
X2525315Y836224D01*
X2550707Y899703D02*
X2563403Y912399D01*
X2588795D01*
X2601491Y899703D01*
Y887007D01*
X2588795Y874311D01*
X2576099D01*
X2588795D01*
X2601491Y861615D01*
Y848920D01*
X2588795Y836224D01*
X2563403D01*
X2550707Y848920D01*
X2476521Y952512D02*
Y1028688D01*
X2514608D01*
X2527304Y1015992D01*
Y990600D01*
X2514608Y977904D01*
X2476521D01*
X2501912D02*
X2527304Y952512D01*
X2603479D02*
X2552696D01*
X2603479Y1003296D01*
Y1015992D01*
X2590784Y1028688D01*
X2565392D01*
X2552696Y1015992D01*
X4616460Y582152D02*
X4679940D01*
Y613892D01*
X4669360Y624472D01*
X4658780D01*
X4648200Y613892D01*
Y582152D01*
Y613892D01*
X4637620Y624472D01*
X4627040D01*
X4616460Y613892D01*
Y582152D01*
Y677371D02*
Y656211D01*
X4627040Y645631D01*
X4669360D01*
X4679940Y656211D01*
Y677371D01*
X4669360Y687951D01*
X4627040D01*
X4616460Y677371D01*
Y740851D02*
Y719691D01*
X4627040Y709111D01*
X4669360D01*
X4679940Y719691D01*
Y740851D01*
X4669360Y751431D01*
X4627040D01*
X4616460Y740851D01*
Y772590D02*
Y814910D01*
Y793750D01*
X4679940D01*
X4627040Y878389D02*
X4616460Y867810D01*
Y846650D01*
X4627040Y836070D01*
X4637620D01*
X4648200Y846650D01*
Y867810D01*
X4658780Y878389D01*
X4669360D01*
X4679940Y867810D01*
Y846650D01*
X4669360Y836070D01*
X4616460Y941869D02*
Y899549D01*
X4679940D01*
Y941869D01*
X4648200Y899549D02*
Y920709D01*
X4616460Y963029D02*
X4679940D01*
Y1005348D01*
X2482864Y1193792D02*
X2470169Y1206488D01*
X2444777D01*
X2432081Y1193792D01*
Y1143008D01*
X2444777Y1130312D01*
X2470169D01*
X2482864Y1143008D01*
X2508256Y1130312D02*
X2533648D01*
X2520952D01*
Y1206488D01*
X2508256Y1193792D01*
X2571736Y1206488D02*
X2622519D01*
Y1193792D01*
X2571736Y1143008D01*
Y1130312D01*
X3975108Y1035064D02*
X3962412Y1022369D01*
Y996977D01*
X3975108Y984281D01*
X4025892D01*
X4038588Y996977D01*
Y1022369D01*
X4025892Y1035064D01*
X4038588Y1060456D02*
Y1085848D01*
Y1073152D01*
X3962412D01*
X3975108Y1060456D01*
X3962412Y1174719D02*
X3975108Y1149328D01*
X4000500Y1123936D01*
X4025892D01*
X4038588Y1136632D01*
Y1162024D01*
X4025892Y1174719D01*
X4013196D01*
X4000500Y1162024D01*
Y1123936D01*
X3917964Y761992D02*
X3905269Y774688D01*
X3879877D01*
X3867181Y761992D01*
Y711208D01*
X3879877Y698512D01*
X3905269D01*
X3917964Y711208D01*
X3943356Y698512D02*
X3968748D01*
X3956052D01*
Y774688D01*
X3943356Y761992D01*
X4057619Y774688D02*
X4006836D01*
Y736600D01*
X4032228Y749296D01*
X4044924D01*
X4057619Y736600D01*
Y711208D01*
X4044924Y698512D01*
X4019532D01*
X4006836Y711208D01*
X3270264Y368292D02*
X3257569Y380988D01*
X3232177D01*
X3219481Y368292D01*
Y317508D01*
X3232177Y304812D01*
X3257569D01*
X3270264Y317508D01*
X3295656Y304812D02*
X3321048D01*
X3308352D01*
Y380988D01*
X3295656Y368292D01*
X3397224Y304812D02*
Y380988D01*
X3359136Y342900D01*
X3409919D01*
X3794460Y342892D02*
X3781764Y355588D01*
X3756372D01*
X3743677Y342892D01*
Y292108D01*
X3756372Y279412D01*
X3781764D01*
X3794460Y292108D01*
X3819852Y279412D02*
X3845244D01*
X3832548D01*
Y355588D01*
X3819852Y342892D01*
X3883331D02*
X3896027Y355588D01*
X3921419D01*
X3934115Y342892D01*
Y330196D01*
X3921419Y317500D01*
X3908723D01*
X3921419D01*
X3934115Y304804D01*
Y292108D01*
X3921419Y279412D01*
X3896027D01*
X3883331Y292108D01*
X3028964Y1485892D02*
X3016269Y1498588D01*
X2990877D01*
X2978181Y1485892D01*
Y1435108D01*
X2990877Y1422412D01*
X3016269D01*
X3028964Y1435108D01*
X3054356Y1422412D02*
X3079748D01*
X3067052D01*
Y1498588D01*
X3054356Y1485892D01*
X3168619Y1422412D02*
X3117836D01*
X3168619Y1473196D01*
Y1485892D01*
X3155924Y1498588D01*
X3130532D01*
X3117836Y1485892D01*
X2482860Y800092D02*
X2470164Y812788D01*
X2444773D01*
X2432077Y800092D01*
Y749308D01*
X2444773Y736612D01*
X2470164D01*
X2482860Y749308D01*
X2508252Y736612D02*
X2533644D01*
X2520948D01*
Y812788D01*
X2508252Y800092D01*
X2571731Y736612D02*
X2597123D01*
X2584427D01*
Y812788D01*
X2571731Y800092D01*
X2845201Y759142D02*
X2832505Y771838D01*
X2807113D01*
X2794417Y759142D01*
Y708359D01*
X2807113Y695663D01*
X2832505D01*
X2845201Y708359D01*
X2870592Y695663D02*
X2895984D01*
X2883288D01*
Y771838D01*
X2870592Y759142D01*
X2934072D02*
X2946768Y771838D01*
X2972160D01*
X2984855Y759142D01*
Y708359D01*
X2972160Y695663D01*
X2946768D01*
X2934072Y708359D01*
Y759142D01*
X3276604Y1282692D02*
X3263908Y1295388D01*
X3238517D01*
X3225821Y1282692D01*
Y1231908D01*
X3238517Y1219212D01*
X3263908D01*
X3276604Y1231908D01*
X3301996D02*
X3314692Y1219212D01*
X3340084D01*
X3352779Y1231908D01*
Y1282692D01*
X3340084Y1295388D01*
X3314692D01*
X3301996Y1282692D01*
Y1269996D01*
X3314692Y1257300D01*
X3352779D01*
X3733804Y1282692D02*
X3721108Y1295388D01*
X3695717D01*
X3683021Y1282692D01*
Y1231908D01*
X3695717Y1219212D01*
X3721108D01*
X3733804Y1231908D01*
X3759196Y1282692D02*
X3771892Y1295388D01*
X3797284D01*
X3809979Y1282692D01*
Y1269996D01*
X3797284Y1257300D01*
X3809979Y1244604D01*
Y1231908D01*
X3797284Y1219212D01*
X3771892D01*
X3759196Y1231908D01*
Y1244604D01*
X3771892Y1257300D01*
X3759196Y1269996D01*
Y1282692D01*
X3771892Y1257300D02*
X3797284D01*
X2959104Y1181092D02*
X2946408Y1193788D01*
X2921017D01*
X2908321Y1181092D01*
Y1130308D01*
X2921017Y1117612D01*
X2946408D01*
X2959104Y1130308D01*
X2984496Y1193788D02*
X3035279D01*
Y1181092D01*
X2984496Y1130308D01*
Y1117612D01*
X2755904Y1384292D02*
X2743208Y1396988D01*
X2717817D01*
X2705121Y1384292D01*
Y1333508D01*
X2717817Y1320812D01*
X2743208D01*
X2755904Y1333508D01*
X2832079Y1396988D02*
X2806688Y1384292D01*
X2781296Y1358900D01*
Y1333508D01*
X2793992Y1320812D01*
X2819384D01*
X2832079Y1333508D01*
Y1346204D01*
X2819384Y1358900D01*
X2781296D01*
X1651004Y76192D02*
X1638308Y88888D01*
X1612917D01*
X1600221Y76192D01*
Y25408D01*
X1612917Y12712D01*
X1638308D01*
X1651004Y25408D01*
X1727179Y88888D02*
X1676396D01*
Y50800D01*
X1701788Y63496D01*
X1714484D01*
X1727179Y50800D01*
Y25408D01*
X1714484Y12712D01*
X1689092D01*
X1676396Y25408D01*
X1092204Y1257292D02*
X1079508Y1269988D01*
X1054117D01*
X1041421Y1257292D01*
Y1206508D01*
X1054117Y1193812D01*
X1079508D01*
X1092204Y1206508D01*
X1117596Y1257292D02*
X1130292Y1269988D01*
X1155684D01*
X1168379Y1257292D01*
Y1244596D01*
X1155684Y1231900D01*
X1142988D01*
X1155684D01*
X1168379Y1219204D01*
Y1206508D01*
X1155684Y1193812D01*
X1130292D01*
X1117596Y1206508D01*
X4648204Y1384292D02*
X4635508Y1396988D01*
X4610117D01*
X4597421Y1384292D01*
Y1333508D01*
X4610117Y1320812D01*
X4635508D01*
X4648204Y1333508D01*
X4724379Y1320812D02*
X4673596D01*
X4724379Y1371596D01*
Y1384292D01*
X4711684Y1396988D01*
X4686292D01*
X4673596Y1384292D01*
X3911600Y444492D02*
X3898904Y457188D01*
X3873512D01*
X3860817Y444492D01*
Y393708D01*
X3873512Y381012D01*
X3898904D01*
X3911600Y393708D01*
X3936992Y381012D02*
X3962384D01*
X3949688D01*
Y457188D01*
X3936992Y444492D01*
D52*
X571500Y1485875D02*
X520717D01*
X546108D01*
Y1358917D01*
X520717Y1333525D01*
X495325D01*
X469933Y1358917D01*
X622284Y1333525D02*
X673067D01*
X647676D01*
Y1485875D01*
X622284Y1460483D01*
X3987833Y177775D02*
Y152383D01*
X4038617Y101600D01*
X4089400Y152383D01*
Y177775D01*
X4038617Y101600D02*
Y25425D01*
X4140184D02*
X4190967D01*
X4165576D01*
Y177775D01*
X4140184Y152383D01*
X1689141Y622275D02*
Y495317D01*
X1714533Y469925D01*
X1765317D01*
X1790708Y495317D01*
Y622275D01*
X1841492Y596883D02*
X1866884Y622275D01*
X1917667D01*
X1943059Y596883D01*
Y571492D01*
X1917667Y546100D01*
X1892275D01*
X1917667D01*
X1943059Y520708D01*
Y495317D01*
X1917667Y469925D01*
X1866884D01*
X1841492Y495317D01*
X2806733Y1041375D02*
Y914417D01*
X2832125Y889025D01*
X2882908D01*
X2908300Y914417D01*
Y1041375D01*
X2959084Y889025D02*
X3009867D01*
X2984476D01*
Y1041375D01*
X2959084Y1015983D01*
%TF.MD5,3165b3fd62aaa93eff7bc5c93e689606*%
M02*
