%TF.GenerationSoftware,Altium Limited,Altium Designer,23.10.1 (27)*%
G04 Layer_Color=32896*
%FSLAX45Y45*%
%MOMM*%
%TF.SameCoordinates,D187A3F4-093A-4DDC-863C-0592D449728B*%
%TF.FilePolarity,Positive*%
%TF.FileFunction,Legend,Bot*%
%TF.Part,Single*%
G01*
G75*
%TA.AperFunction,NonConductor*%
%ADD51C,0.12700*%
%ADD52C,0.25400*%
D51*
X2146300Y1473200D02*
Y1447808D01*
Y1460504D01*
X2070125D01*
X2082821Y1473200D01*
Y1409721D02*
X2070125Y1397025D01*
Y1371633D01*
X2082821Y1358937D01*
X2095517D01*
X2108212Y1371633D01*
X2120908Y1358937D01*
X2133604D01*
X2146300Y1371633D01*
Y1397025D01*
X2133604Y1409721D01*
X2120908D01*
X2108212Y1397025D01*
X2095517Y1409721D01*
X2082821D01*
X2108212Y1397025D02*
Y1371633D01*
X2146300Y1333545D02*
X2095517Y1282762D01*
X2146300Y1257370D02*
Y1231978D01*
Y1244674D01*
X2070125D01*
X2082821Y1257370D01*
X2146300Y1193890D02*
Y1168499D01*
Y1181194D01*
X2070125D01*
X2082821Y1193890D01*
X2146300Y1130411D02*
X2095517Y1079628D01*
X2146300Y1003452D02*
Y1054236D01*
X2095517Y1003452D01*
X2082821D01*
X2070125Y1016148D01*
Y1041540D01*
X2082821Y1054236D01*
Y978060D02*
X2070125Y965364D01*
Y939972D01*
X2082821Y927277D01*
X2095517D01*
X2108212Y939972D01*
Y952668D01*
Y939972D01*
X2120908Y927277D01*
X2133604D01*
X2146300Y939972D01*
Y965364D01*
X2133604Y978060D01*
X2209825Y1473200D02*
X2260608D01*
X2286000Y1447808D01*
X2260608Y1422417D01*
X2209825D01*
X2286000Y1397025D02*
Y1371633D01*
Y1384329D01*
X2209825D01*
X2222521Y1397025D01*
X3160231Y304800D02*
X3084056D01*
Y266712D01*
X3096751Y254017D01*
X3122143D01*
X3134839Y266712D01*
Y304800D01*
X3096751Y228625D02*
X3084056Y215929D01*
Y190537D01*
X3096751Y177841D01*
X3147535D01*
X3160231Y190537D01*
Y215929D01*
X3147535Y228625D01*
X3096751D01*
X1092200Y558800D02*
X1016025D01*
Y520712D01*
X1028721Y508017D01*
X1054112D01*
X1066808Y520712D01*
Y558800D01*
X1092200Y482625D02*
Y457233D01*
Y469929D01*
X1016025D01*
X1028721Y482625D01*
Y419145D02*
X1016025Y406449D01*
Y381057D01*
X1028721Y368362D01*
X1041417D01*
X1054112Y381057D01*
Y393753D01*
Y381057D01*
X1066808Y368362D01*
X1079504D01*
X1092200Y381057D01*
Y406449D01*
X1079504Y419145D01*
X1320800Y558800D02*
X1244625D01*
Y520712D01*
X1257321Y508017D01*
X1282712D01*
X1295408Y520712D01*
Y558800D01*
X1320800Y482625D02*
Y457233D01*
Y469929D01*
X1244625D01*
X1257321Y482625D01*
X1320800Y368362D02*
Y419145D01*
X1270017Y368362D01*
X1257321D01*
X1244625Y381057D01*
Y406449D01*
X1257321Y419145D01*
X3327400Y304800D02*
X3251225D01*
Y266712D01*
X3263921Y254017D01*
X3289312D01*
X3302008Y266712D01*
Y304800D01*
X3327400Y228625D02*
Y203233D01*
Y215929D01*
X3251225D01*
X3263921Y228625D01*
X3517457Y304800D02*
X3441282D01*
Y266712D01*
X3453978Y254017D01*
X3479369D01*
X3492065Y266712D01*
Y304800D01*
X3517457Y177841D02*
Y228625D01*
X3466674Y177841D01*
X3453978D01*
X3441282Y190537D01*
Y215929D01*
X3453978Y228625D01*
X3705574Y304800D02*
X3629399D01*
Y266712D01*
X3642095Y254017D01*
X3667486D01*
X3680182Y266712D01*
Y304800D01*
X3642095Y228625D02*
X3629399Y215929D01*
Y190537D01*
X3642095Y177841D01*
X3654791D01*
X3667486Y190537D01*
Y203233D01*
Y190537D01*
X3680182Y177841D01*
X3692878D01*
X3705574Y190537D01*
Y215929D01*
X3692878Y228625D01*
X3895331Y304800D02*
X3819156D01*
Y266712D01*
X3831852Y254017D01*
X3857243D01*
X3869939Y266712D01*
Y304800D01*
X3895331Y190537D02*
X3819156D01*
X3857243Y228625D01*
Y177841D01*
X3352800Y1397000D02*
X3276625D01*
Y1358912D01*
X3289321Y1346217D01*
X3314712D01*
X3327408Y1358912D01*
Y1397000D01*
X3352800Y1320825D02*
Y1295433D01*
Y1308129D01*
X3276625D01*
X3289321Y1320825D01*
X3276625Y1206562D02*
X3289321Y1231953D01*
X3314712Y1257345D01*
X3340104D01*
X3352800Y1244649D01*
Y1219257D01*
X3340104Y1206562D01*
X3327408D01*
X3314712Y1219257D01*
Y1257345D01*
X3543300Y1397000D02*
X3467125D01*
Y1358912D01*
X3479821Y1346217D01*
X3505212D01*
X3517908Y1358912D01*
Y1397000D01*
X3543300Y1320825D02*
Y1295433D01*
Y1308129D01*
X3467125D01*
X3479821Y1320825D01*
X3467125Y1257345D02*
Y1206562D01*
X3479821D01*
X3530604Y1257345D01*
X3543300D01*
X3733800Y1397000D02*
X3657625D01*
Y1358912D01*
X3670321Y1346217D01*
X3695712D01*
X3708408Y1358912D01*
Y1397000D01*
X3733800Y1320825D02*
Y1295433D01*
Y1308129D01*
X3657625D01*
X3670321Y1320825D01*
X3721104Y1257345D02*
X3733800Y1244649D01*
Y1219257D01*
X3721104Y1206562D01*
X3670321D01*
X3657625Y1219257D01*
Y1244649D01*
X3670321Y1257345D01*
X3683017D01*
X3695712Y1244649D01*
Y1206562D01*
X3924300Y1397000D02*
X3848125D01*
Y1358912D01*
X3860821Y1346217D01*
X3886212D01*
X3898908Y1358912D01*
Y1397000D01*
X3924300Y1320825D02*
Y1295433D01*
Y1308129D01*
X3848125D01*
X3860821Y1320825D01*
Y1257345D02*
X3848125Y1244649D01*
Y1219257D01*
X3860821Y1206562D01*
X3873517D01*
X3886212Y1219257D01*
X3898908Y1206562D01*
X3911604D01*
X3924300Y1219257D01*
Y1244649D01*
X3911604Y1257345D01*
X3898908D01*
X3886212Y1244649D01*
X3873517Y1257345D01*
X3860821D01*
X3886212Y1244649D02*
Y1219257D01*
D52*
X2019300Y1460500D02*
X1841557D01*
Y1371629D01*
X1871181Y1342005D01*
X1930429D01*
X1960052Y1371629D01*
Y1460500D01*
X2019300Y1282757D02*
X1900805D01*
X1841557Y1223510D01*
X1900805Y1164262D01*
X2019300D01*
X1930429D01*
Y1282757D01*
X1841557Y1105015D02*
X2019300D01*
X1960052D01*
X1841557Y986520D01*
X1930429Y1075391D01*
X2019300Y986520D01*
%TF.MD5,9ea234a98f1f5499b78127e749a1cc1c*%
M02*
